<?xml version="1.0" standalone="no"?>
<!DOCTYPE svg PUBLIC "-//W3C//DTD SVG 1.1//EN" "http://www.w3.org/Graphics/SVG/1.1/DTD/svg11.dtd" >
<svg xmlns="http://www.w3.org/2000/svg" xmlns:xlink="http://www.w3.org/1999/xlink" version="1.1">
<metadata>
Created by FontForge 20150318 at Thu Jul 23 18:46:51 2015
 By uniteet7
copyright missing
</metadata>
<defs>
<font id="Aldi-Regular" horiz-adv-x="758" >
  <font-face 
    font-family="Aldi"
    font-weight="400"
    font-stretch="normal"
    units-per-em="1000"
    panose-1="0 0 5 0 0 0 0 0 0 0"
    ascent="800"
    descent="-200"
    x-height="702"
    cap-height="704"
    bbox="-40.5527 -200.158 932.488 800.047"
    underline-thickness="50"
    underline-position="-50"
    unicode-range="U+0020-2265"
  />
<missing-glyph horiz-adv-x="500" 
d="M0 0v700h500v-700h-500zM250 395l170 255h-340zM280 350l170 -255v510zM80 50h340l-170 255zM50 605v-510l170 255z" />
    <glyph glyph-name=".notdef" horiz-adv-x="500" 
d="M0 0v700h500v-700h-500zM250 395l170 255h-340zM280 350l170 -255v510zM80 50h340l-170 255zM50 605v-510l170 255z" />
    <glyph glyph-name="A" unicode="A" horiz-adv-x="857" 
d="M739 -12c10 7 18 14 28 21c8 7 12 21 8 35c-2 18 -8 34 -18 53c-12 30 -30 62 -39 97c-3 10 -9 24 -18 35c-30 56 -54 115 -82 175c-27 63 -54 121 -85 184c-14 32 -30 67 -48 98c-8 17 -20 24 -35 24s-27 -3 -37 -17c-48 -77 -96 -157 -127 -247
c-12 -32 -27 -60 -42 -88c-42 -80 -99 -196 -150 -266c-6 -7 -9 -20 -13 -27c-2 -28 7 -49 31 -59c0 0 3 -4 6 -4c9 -3 21 -3 24 4c11 17 23 38 35 59l55 94c12 17 27 31 46 28c26 0 51 0 78 -4c31 0 61 -3 91 0c42 7 86 4 129 7c36 0 58 -14 70 -51c2 -14 8 -28 14 -40
c10 -30 25 -58 40 -86c9 -18 21 -21 39 -25zM431 267c-38 0 -75 -3 -111 -7c-12 0 -22 14 -16 28c4 7 4 18 6 25c7 14 13 24 19 42c12 31 30 63 42 98c6 23 22 44 34 65c8 18 18 35 26 53c4 3 10 3 13 0c6 0 9 -7 11 -11c4 -3 6 -7 10 -14c32 -72 66 -149 99 -226
c3 -7 3 -14 6 -25c0 -3 -3 -17 -9 -17c-22 -4 -42 -4 -64 -7c-20 0 -44 -4 -66 -4z" />
    <glyph glyph-name="B" unicode="B" horiz-adv-x="782" 
d="M530 401c5 7 11 14 18 21c12 15 28 29 39 44c24 30 28 63 28 98c0 6 -1 10 -4 14c-30 63 -74 108 -147 116c-16 2 -30 3 -44 6c-29 6 -58 6 -88 -1c-19 -5 -39 -6 -58 -6c-40 0 -79 0 -118 -1c-28 -2 -52 -27 -52 -54c-4 -90 -7 -181 3 -272c7 -80 13 -161 20 -241
c2 -28 5 -53 -7 -80c-7 -12 5 -29 19 -33c14 -5 28 -7 44 -6c49 1 98 0 146 3c26 1 48 -11 73 -6c24 6 49 11 73 11c39 0 73 13 106 28c47 23 84 55 96 108c1 10 7 21 4 29c-10 27 -7 58 -24 83c-29 43 -57 85 -104 112c-5 3 -11 7 -16 13c-3 2 -5 8 -7 14zM195 612
c17 11 37 18 56 15c25 -1 49 2 73 0c42 -1 82 -7 123 -12c35 -5 57 -28 70 -58c13 -29 3 -57 -18 -81c-17 -19 -39 -31 -63 -38c-18 -7 -38 -12 -58 -14c-55 -4 -111 -8 -166 -18c-7 -1 -21 10 -22 16c0 2 -2 5 -2 7c-3 58 -1 117 4 176c2 3 3 4 3 7zM359 81
c-30 3 -59 2 -88 -1c-13 0 -24 3 -37 6c-4 0 -8 5 -9 8c-9 69 -19 136 -26 204c-2 19 6 28 23 34c25 8 52 15 80 15h81c16 0 33 -2 50 -9c52 -23 101 -49 129 -103c7 -15 17 -29 25 -43s6 -29 -1 -43c-16 -30 -37 -51 -73 -58c-24 -4 -48 -5 -73 -7c-27 -1 -55 -3 -81 -3z
" />
    <glyph glyph-name="C" unicode="C" horiz-adv-x="787" 
d="M656 579c12 -11 37 -52 29 -78c-3 -8 -10 -18 -27 -22h-7c-21 2 -38 29 -51 48c-3 5 -5 10 -8 12c-39 53 -98 84 -159 84c-42 0 -80 -15 -111 -43c-80 -72 -123 -160 -128 -263c-5 -91 4 -212 115 -244c41 -11 107 -23 147 -23c24 0 47 6 68 14s39 21 59 35
c8 5 15 21 23 26c3 2 6 5 9 8c5 5 11 11 18 12c3 1 8 1 11 1c9 0 21 -2 27 -9c7 -8 6 -29 0 -39c-45 -66 -108 -103 -197 -116c-16 -2 -33 -3 -49 -3c-67 0 -134 19 -213 61c-59 31 -92 86 -104 169c-5 39 -10 86 -7 132c3 61 30 113 54 158c39 67 92 114 145 157
c43 35 90 53 142 53c22 0 45 -3 68 -11c11 -3 20 -10 29 -17l3 -2c15 -12 30 -24 44 -36c4 -4 9 -8 14 -12c18 -17 38 -34 56 -52z" />
    <glyph glyph-name="D" unicode="D" horiz-adv-x="828" 
d="M107 202c0 -47 -4 -92 -4 -139c0 -31 17 -48 44 -58c21 -3 41 -3 62 -3c27 7 54 10 78 10c44 3 84 10 125 17s85 17 122 37c20 14 44 27 68 41c30 20 54 41 75 71c44 58 74 116 64 190c7 38 -14 68 -17 105c-20 41 -34 89 -75 119c-6 7 -10 14 -17 20
c-30 44 -81 58 -125 82h-17c-58 0 -112 10 -170 -4c-10 -3 -20 -3 -30 0c-41 7 -78 14 -115 21c-21 7 -41 0 -58 -14c-7 -3 -10 -13 -14 -20c-3 -4 -3 -10 -3 -14c0 -27 0 -54 3 -78c7 -51 7 -98 4 -149c0 -51 3 -102 3 -156c0 -24 0 -51 -3 -78zM358 616c23 0 47 3 71 0
c51 -7 98 -27 136 -68c34 -37 61 -81 74 -129c17 -44 17 -91 -7 -136c-3 -6 -6 -10 -6 -17c-31 -84 -95 -132 -180 -152c-65 -17 -132 -27 -200 -24c-7 0 -10 0 -17 3c-10 0 -24 14 -20 28c3 44 0 91 0 139c0 47 -4 91 -7 139c0 17 -4 30 -4 47c4 31 4 61 -3 92
c-3 10 0 20 0 30c0 44 3 51 47 51c28 0 97 -3 116 -3z" />
    <glyph glyph-name="E" unicode="E" horiz-adv-x="728" 
d="M610 703c-22 6 -48 3 -71 2c-38 -2 -132 -5 -179 -5c-27 0 -68 -4 -96 1c-29 5 -61 3 -92 2c-15 -1 -30 -7 -45 -11c-6 -1 -19 -18 -18 -24c4 -31 1 -61 -8 -92c-2 -7 0 -15 0 -22c1 -29 2 -57 2 -85c-1 -56 -5 -113 -1 -169c3 -36 4 -71 2 -107l-3 -85
c0 -21 2 -41 3 -61c1 -21 14 -33 30 -40c9 -4 20 -6 30 -5c18 1 36 7 54 7c74 1 148 1 223 -3c43 -2 87 -1 130 0c12 0 25 7 37 12c12 6 17 20 13 33c-7 21 -25 36 -45 34c-33 -4 -67 0 -100 -11c-35 5 -70 11 -106 14c-17 2 -36 -1 -53 -1c-29 -1 -57 -3 -85 -3
c-19 0 -34 16 -34 34c1 54 1 107 2 161c1 14 12 25 25 25c67 0 134 0 201 1c10 0 20 1 30 4c4 1 8 6 10 10c16 37 -10 64 -41 63c-21 0 -41 1 -62 -3c-41 -6 -82 -4 -123 -2c-10 1 -21 2 -30 6c-6 3 -13 10 -14 16c-8 63 -11 127 -4 191c3 32 14 42 45 41c13 0 26 1 38 -2
c53 -13 107 -9 161 -2c44 6 87 8 131 1c7 -1 15 -2 22 -1c8 1 16 3 23 5c25 9 33 35 18 56c-6 7 -14 8 -20 15z" />
    <glyph glyph-name="F" unicode="F" horiz-adv-x="677" 
d="M237 626l149 3c27 -1 67 -2 106 -5c23 -2 46 -1 68 5c17 5 26 17 31 34c4 15 -2 29 -17 35c-9 3 -19 6 -28 6c-36 0 -71 -4 -106 0c-52 5 -106 -8 -157 -2c-33 3 -65 -7 -96 1c-17 4 -35 2 -53 -3c-17 -5 -33 -24 -32 -40c4 -47 -7 -96 1 -142c-7 -83 2 -163 -3 -246
c-4 -65 10 -127 10 -192c-1 -20 6 -39 10 -57c5 -19 27 -29 47 -22l15 6c21 8 26 15 25 33c-1 22 -3 44 0 67c3 22 -6 43 -8 65c-1 20 1 40 3 60c0 8 6 14 13 18c10 4 20 8 30 9c17 2 35 2 53 2c31 -1 59 13 87 30c3 2 6 10 6 14c-5 23 -25 39 -46 36c-18 -2 -35 -6 -53 -8
c-25 -3 -51 -5 -76 -7c-8 -1 -19 10 -20 17c-1 5 -1 10 -2 15c-2 54 0 109 -8 162c-3 26 4 55 7 82c1 9 13 20 21 21s15 3 23 3z" />
    <glyph glyph-name="G" unicode="G" horiz-adv-x="747" 
d="M370 -4c9 -2 19 -3 29 -5c52 -8 102 -3 147 25c27 16 52 32 79 47c11 5 18 17 19 30c1 16 3 31 2 47c-2 35 -2 71 1 106c2 12 -3 25 -7 38c-7 23 -32 40 -53 30c-35 -16 -70 -11 -106 -8c-13 1 -25 5 -37 5c-21 0 -41 -5 -56 -21c-7 -6 -8 -13 -7 -21
c4 -13 10 -22 24 -28c26 -12 54 -8 82 -8c76 -1 79 14 82 -78c2 -20 -5 -35 -19 -48c-37 -32 -80 -45 -128 -38c-50 9 -99 23 -139 58c-16 14 -30 27 -42 44c-57 87 -55 177 -21 271c9 24 21 46 33 69c24 46 62 80 108 106c19 12 42 15 66 18c4 0 11 0 15 -1
c35 -13 68 -29 98 -51c20 -14 52 -37 76 -15c41 42 -63 98 -91 110c-18 9 -36 20 -55 28c-8 4 -19 7 -28 7c-46 0 -91 -4 -133 -29c-42 -27 -77 -57 -110 -95c-30 -33 -52 -68 -66 -110c-9 -26 -18 -53 -26 -79c-4 -12 -6 -25 -7 -37c-2 -15 15 -154 21 -166
c24 -61 56 -114 113 -150c34 -20 66 -38 105 -44c9 -1 19 -4 31 -7z" />
    <glyph glyph-name="H" unicode="H" 
d="M649 529c3 49 9 94 9 129c0 10 0 23 -3 36c-3 3 -10 9 -16 13c-23 6 -55 -10 -61 -33c-7 -25 -13 -51 -16 -74c-4 -45 -7 -100 -13 -145c0 -6 0 -16 -4 -23c-3 -6 -6 -13 -16 -16c-13 -3 -22 -9 -35 -9c-16 -4 -36 0 -52 -4c-64 -13 -126 -9 -187 -25h-23
c-22 3 -38 12 -42 35c-3 13 -3 29 -3 42c-3 61 -6 135 0 197v22c0 10 -13 23 -26 23c-12 0 -22 -3 -35 -13c-10 -3 -16 -13 -16 -23l-10 -180c0 -49 7 -94 0 -142c0 -10 3 -20 3 -29c7 -65 13 -162 10 -229c-3 -13 0 -26 0 -39c10 -42 36 -52 77 -32c7 3 13 9 17 16
c3 16 9 35 6 51c-6 42 -3 117 -10 155c-6 94 0 71 75 84c9 0 19 -3 29 -3c13 0 29 0 45 3c35 13 74 13 110 10c25 0 51 19 74 0c22 -19 6 -49 9 -78c7 -48 10 -125 7 -177c0 -6 3 -13 3 -23c0 -16 13 -29 26 -42c3 -3 13 -3 19 -3c7 0 13 7 23 10c16 3 22 16 26 32
c0 26 0 81 -4 103c0 13 -3 26 -3 39c3 36 -3 74 -3 110c0 22 -3 45 -3 68c6 58 0 116 13 164z" />
    <glyph glyph-name="I" unicode="I" horiz-adv-x="375" 
d="M145 231c0 -27 2 -65 0 -80c-7 -45 2 -87 19 -129c6 -17 14 -23 35 -22c11 0 22 1 28 11c21 30 37 62 22 101c-3 9 -5 20 -5 30c0 88 -7 197 -18 285c-3 28 -1 57 -6 85c-10 49 -16 97 -3 146c2 5 0 10 -1 16c-3 23 -30 39 -53 30c-24 -9 -40 -26 -41 -51
c-4 -54 -2 -108 4 -163c9 -90 24 -180 19 -259z" />
    <glyph glyph-name="J" unicode="J" horiz-adv-x="665" 
d="M559 190v72c3 43 6 74 6 105c0 87 -7 174 -4 261c1 21 -6 40 -14 58c-4 10 -14 14 -25 14c-17 0 -31 -7 -38 -23c-6 -11 -12 -24 -13 -37c-2 -28 -4 -56 -1 -84c4 -48 9 -96 4 -145c-1 -8 0 -16 2 -23c7 -28 4 -56 2 -84c-2 -26 -3 -52 -6 -77c-2 -23 -8 -46 -11 -69
c-2 -16 -9 -30 -22 -40l-32 -24c-37 -28 -78 -28 -119 -21c-7 1 -14 5 -20 9c-43 33 -79 69 -84 128c-1 7 -4 14 -6 22c-4 15 -27 24 -44 17c-7 -4 -14 -8 -20 -13c-10 -6 -15 -16 -14 -27c4 -46 13 -90 48 -124c12 -12 22 -27 32 -41c20 -30 49 -42 84 -43c28 -2 56 0 85 0
c23 0 45 6 68 14c32 13 61 30 88 53c39 32 44 42 52 91c2 10 1 21 2 31z" />
    <glyph glyph-name="K" unicode="K" horiz-adv-x="723" 
d="M197 373c-3 23 -11 45 -7 66c9 52 -2 130 0 181c1 17 -2 34 -3 51c-2 16 -18 33 -33 35c-22 3 -43 -7 -47 -26c-3 -12 -7 -24 -7 -36c1 -22 5 -54 6 -76c2 -98 4 -213 1 -311c-2 -54 6 -107 3 -161c-2 -22 5 -44 9 -65c1 -7 6 -13 10 -19c10 -13 25 -15 40 -8
c21 10 36 25 35 51c0 15 -1 29 -1 44c-1 34 -2 68 -2 103c0 30 8 58 33 79c9 8 15 19 23 28c13 15 27 16 38 3c23 -25 45 -51 71 -73c9 -8 18 -18 22 -29c12 -28 33 -48 53 -69c18 -19 36 -39 53 -60c21 -27 47 -49 71 -73c10 -10 23 -10 33 -2c27 22 30 34 19 64
c-10 25 -26 47 -45 65c-54 51 -93 113 -144 165c-22 23 -39 50 -59 74c-19 23 -17 40 3 66c4 6 9 12 16 16c27 17 47 43 70 65c21 21 40 43 61 65c13 14 27 28 47 35c6 2 12 7 19 11c19 14 22 39 7 58c-15 16 -37 20 -53 8c-8 -5 -16 -11 -23 -18c-31 -32 -62 -64 -91 -98
c-22 -24 -43 -47 -67 -69c-31 -27 -62 -55 -88 -89c-14 -20 -34 -36 -52 -52c-4 -3 -14 0 -21 1z" />
    <glyph glyph-name="L" unicode="L" horiz-adv-x="623" 
d="M365 15c40 -1 115 -27 148 13c16 20 14 53 -16 55c-73 4 -145 12 -220 3c-68 -8 -72 -5 -76 66c0 12 2 25 2 38c-1 35 1 70 -3 105c-2 23 -3 45 -4 68c-3 55 0 111 2 167c0 15 2 31 -2 45c-7 24 -4 50 -5 75v30c0 10 -15 24 -25 23c-18 0 -36 -2 -50 -17
c-9 -9 -17 -19 -15 -33c11 -70 13 -140 7 -212c-4 -38 -6 -76 -2 -114c7 -60 3 -121 -1 -182c-2 -20 -4 -40 -3 -60c0 -18 2 -35 6 -52c4 -20 24 -34 44 -33c53 3 106 7 160 11c17 1 35 3 53 4z" />
    <glyph glyph-name="M" unicode="M" horiz-adv-x="958" 
d="M478 108l-1 -1c-16 -5 -43 64 -50 78c-38 83 -79 159 -105 243c-38 126 -73 194 -141 251c-11 10 -33 22 -42 14c-10 -10 -33 -29 -35 -47c-6 -42 -4 -74 -1 -117c3 -50 10 -107 12 -152c-1 -11 1 -42 2 -51l3 -52c1 -20 3 -39 4 -57c0 -6 0 -20 -2 -28
c0 -52 2 -92 3 -144c1 -35 9 -51 36 -43c15 4 28 4 38 16c12 15 14 38 13 58c-1 38 -3 76 -4 114c-2 39 -15 145 -16 184c-2 39 3 122 3 167c35 -52 53 -138 81 -197c21 -46 54 -167 77 -211c23 -43 37 -112 97 -117c20 -2 43 -1 63 8s28 27 37 48c30 59 52 123 80 184
c20 43 39 88 59 131c10 22 21 45 31 68c4 10 10 19 15 28c4 7 6 17 12 23c5 5 6 -29 6 -31c0 -16 3 -34 4 -52c2 -33 11 -62 8 -100c0 -38 -1 -74 -2 -111c-1 -35 8 -68 9 -102c1 -24 -3 -61 10 -83c7 -14 16 -25 32 -27c59 -7 44 59 39 95c-3 23 -4 47 -5 71
c-4 85 2 170 0 255c-1 38 -4 77 -6 115c2 40 -6 79 -6 119c0 8 2 19 -2 24c-8 10 -20 25 -30 25c-29 -1 -62 -14 -77 -46c-29 -68 -62 -135 -92 -202c-36 -77 -76 -167 -111 -244c-12 -26 -32 -84 -46 -104z" />
    <glyph glyph-name="N" unicode="N" horiz-adv-x="760" 
d="M177 511c0 8 0 16 1 24c24 -39 37 -57 50 -75s30 -53 42 -71l42 -60c62 -89 123 -179 189 -264c15 -20 27 -58 53 -66c18 -5 50 0 64 13c30 26 23 78 26 114c6 56 12 113 15 169c3 59 -4 119 -3 179c0 61 6 123 4 185c0 16 -19 42 -33 45c-29 7 -54 -20 -53 -49
c0 -32 -1 -64 1 -96c2 -58 9 -117 9 -176c-1 -46 -4 -92 -8 -138c-1 -20 -3 -40 -3 -61c1 -14 4 -35 -6 -46c-2 -2 -67 84 -73 92c-48 64 -99 127 -144 194c-56 84 -107 171 -160 257c-11 18 -31 32 -51 17c-19 -14 -25 -32 -28 -56c-3 -37 -6 -74 -6 -112
c-1 -31 -5 -63 -5 -94c0 -76 8 -153 4 -230c-3 -57 -2 -112 1 -169c1 -28 22 -37 44 -32c21 5 55 2 50 42c-4 26 -7 53 -8 79c-2 68 0 137 -4 205c-4 60 -11 120 -10 180z" />
    <glyph glyph-name="O" unicode="O" horiz-adv-x="762" 
d="M672 316c-2 17 -2 31 -5 45c-7 46 -15 93 -24 139c-15 70 -60 117 -118 153c-28 17 -59 29 -87 46c-36 20 -68 19 -107 3c-74 -29 -86 -40 -135 -89l-30 -25c-37 -41 -50 -87 -59 -145c-2 -6 -2 -13 -4 -20c-14 -68 -15 -136 -8 -205c8 -74 48 -125 106 -167
c27 -20 60 -26 88 -44c23 -15 49 -20 75 -16c33 5 65 13 96 22c16 5 30 15 43 25c41 35 80 73 114 116c19 24 35 51 43 80c7 28 8 56 12 82zM177 338c2 20 4 55 10 90c5 35 18 68 35 100c26 47 47 63 95 85c22 11 65 27 89 18c36 -13 65 -25 96 -47c30 -21 39 -52 49 -86
c15 -50 24 -95 28 -147c1 -14 1 -28 1 -42c0 -50 -12 -89 -44 -126c-17 -19 -34 -40 -51 -59c-29 -35 -71 -50 -114 -50c-58 4 -73 20 -103 40c-54 36 -88 85 -91 152c-1 19 0 38 0 72z" />
    <glyph glyph-name="P" unicode="P" horiz-adv-x="643" 
d="M263 704c0 0 -26 -1 -38 0c-13 1 -26 4 -39 4c-15 -1 -31 -3 -45 -9c-22 -10 -43 -50 -40 -73c2 -23 9 -46 8 -69c-1 -59 -1 -118 -2 -177s-5 -118 0 -177c3 -42 4 -94 -1 -136c-4 -31 19 -71 55 -67c19 3 27 12 32 29c17 50 7 110 5 162c-1 10 4 21 15 26
c17 8 33 17 51 22c28 8 56 16 84 21c24 4 45 14 65 28c18 12 36 24 52 37c32 26 56 57 67 98c8 31 10 61 11 92c0 32 -8 60 -23 87c-8 15 -18 30 -28 45c-11 16 -27 32 -46 36c-37 8 -72 25 -113 21c-23 -2 -46 0 -70 0zM258 626c36 9 67 -4 100 -7c5 -1 10 -2 14 -5
c41 -27 72 -62 77 -114c1 -10 2 -21 2 -31c1 -27 -9 -51 -26 -72c-37 -47 -85 -72 -140 -85c-21 -5 -42 -6 -62 -9c-15 -2 -32 12 -31 27c4 33 2 66 3 99c2 60 4 119 -1 178c-1 10 10 21 19 21c16 0 31 -1 45 -2z" />
    <glyph glyph-name="Q" unicode="Q" horiz-adv-x="768" 
d="M647 56c44 -35 31 -85 -28 -72c-39 9 -74 40 -107 62l-9 -8c-13 -10 -27 -20 -43 -25c-31 -9 -63 -17 -96 -22c-26 -4 -52 1 -75 16c-28 18 -61 24 -88 44c-58 42 -98 93 -106 167c-7 69 -6 137 8 205c2 7 2 14 4 20c9 58 22 104 59 145l30 25c49 49 61 60 135 89
c39 16 71 17 107 -3c28 -17 59 -29 87 -46c58 -36 103 -83 118 -153c9 -46 17 -93 24 -139c3 -14 3 -28 5 -45c-4 -26 -5 -54 -12 -82c-8 -29 -24 -56 -43 -80c-14 -18 -29 -34 -44 -51c24 -16 53 -28 74 -47zM268 114c30 -20 45 -36 103 -40c30 0 60 7 84 24
c-18 19 -33 40 -46 57c-10 13 -4 35 10 44c17 10 35 12 54 2c16 -9 30 -25 43 -41l20 23c32 37 44 76 44 126c0 14 0 28 -1 42c-4 52 -13 97 -28 147c-10 34 -19 65 -49 86c-31 22 -60 34 -96 47c-24 9 -67 -7 -89 -18c-48 -22 -69 -38 -95 -85c-17 -32 -30 -65 -35 -100
c-6 -35 -8 -70 -10 -90c0 -34 -1 -53 0 -72c3 -67 37 -116 91 -152z" />
    <glyph glyph-name="R" unicode="R" horiz-adv-x="722" 
d="M205 8c-2 28 -5 55 -7 82s-6 54 -8 81c-6 106 6 92 94 103c26 3 43 -8 55 -29c11 -21 26 -41 43 -58c25 -27 49 -54 69 -85c15 -22 31 -43 48 -64c13 -15 27 -29 42 -41c6 -5 18 -6 28 -6c16 0 28 9 40 20c13 12 17 28 7 40c-16 19 -32 37 -49 54c-23 22 -44 45 -64 70
c-27 35 -56 68 -84 101c-3 4 -6 8 -9 11c-3 5 -1 18 5 21l78 48c68 43 98 103 89 180c-1 10 -4 20 -5 30c-7 49 -33 86 -73 113c-12 8 -25 14 -41 15c-48 0 -95 5 -143 0c-42 -5 -85 -4 -126 7c-14 4 -29 3 -44 2c-18 -1 -40 -23 -40 -41c0 -32 -5 -64 3 -96
c5 -21 4 -46 -2 -67c-9 -38 -12 -74 -6 -112c2 -17 1 -35 -2 -52c-6 -35 -2 -70 -1 -104c0 -33 1 -65 2 -98v-97c0 -11 7 -18 16 -23c27 -15 55 -19 85 -5zM192 497c1 25 2 50 4 75c2 16 17 35 34 39s34 7 52 9c32 3 65 5 97 7c33 1 65 -5 88 -30c30 -32 42 -68 29 -115
c-6 -23 -18 -41 -34 -58c-29 -30 -66 -49 -101 -69c-6 -4 -14 -6 -21 -7c-18 -2 -35 -5 -52 -11c-24 -8 -49 -6 -74 0c-10 2 -17 9 -19 19c-5 29 -11 58 -7 89c2 17 2 35 4 52z" />
    <glyph glyph-name="S" unicode="S" horiz-adv-x="706" 
d="M489 219l31 -48c-2 -25 -9 -50 -24 -72c-5 -7 -12 -16 -19 -20c-46 -24 -95 -24 -145 -22c-40 15 -80 29 -111 61c-13 14 -24 28 -27 48c-2 11 -5 23 -8 34c-2 8 -14 15 -22 15c-17 1 -33 -1 -48 -9c-10 -5 -17 -20 -15 -29c8 -35 23 -67 41 -98c13 -22 30 -44 54 -54
c34 -15 70 -29 108 -33c64 -7 126 7 188 21c8 2 17 9 24 14c12 8 23 17 34 26c49 39 66 89 50 151c-4 16 -7 32 -17 46c-36 47 -74 92 -128 119c-21 11 -42 21 -64 29c-46 15 -85 41 -126 64c-31 18 -47 45 -42 83v7c6 52 44 86 91 96c22 4 47 2 69 -4c28 -6 54 -18 79 -30
c26 -13 50 -28 60 -57c2 -5 6 -8 9 -12c14 -18 45 -19 62 -1c5 4 8 13 7 19c-5 28 -17 53 -39 73c-29 29 -63 47 -102 61c-39 12 -79 17 -118 19c-35 1 -71 -2 -103 -21c-68 -41 -106 -99 -109 -178c-1 -17 3 -33 10 -48c16 -33 39 -59 71 -77c39 -21 77 -45 119 -61
c33 -13 64 -31 94 -49c27 -15 50 -36 66 -63z" />
    <glyph glyph-name="T" unicode="T" horiz-adv-x="840" 
d="M753 666c5 -19 0 -35 -15 -49c-3 -4 -10 -9 -13 -8c-43 14 -90 5 -134 14c-29 5 -61 4 -91 4c-15 0 -32 -16 -32 -29c-1 -23 -1 -46 -1 -86c-7 -68 10 -149 14 -232c2 -25 4 -50 3 -75c0 -15 -1 -31 -1 -46c1 -38 -4 -76 11 -112c6 -15 -12 -40 -28 -41
c-13 -1 -25 -2 -38 -4c-34 -6 -46 3 -48 35c-1 13 -2 26 -1 38c1 64 4 127 5 191c0 23 -2 45 -2 68c-1 28 -2 55 -2 83c1 26 5 51 -1 76c-3 12 0 25 0 38c1 18 2 36 1 53c0 33 -7 42 -37 44c-28 2 -56 2 -84 3c-13 0 -26 -2 -38 -2c-13 0 -26 1 -38 5c-28 8 -55 20 -86 21
c-5 0 -12 10 -12 16s4 15 10 20c12 9 26 17 43 16c25 -2 50 -5 75 -6c70 -5 141 -10 213 3c15 3 31 3 46 3c41 0 82 2 122 -2s80 -9 120 -12c19 -2 34 -7 39 -27z" />
    <glyph glyph-name="U" unicode="U" horiz-adv-x="748" 
d="M552 509c-3 -40 -11 -81 -8 -121c3 -47 -18 -90 -21 -135c-23 -57 -51 -111 -92 -158c-22 -26 -59 -35 -91 -24c-68 25 -108 74 -121 145c-1 10 -2 21 -2 31c-3 66 -17 131 -17 198c1 38 -1 76 -6 114c-4 38 -9 76 -7 115c1 14 -10 23 -22 29c-29 13 -66 -12 -65 -43
c2 -36 4 -71 5 -107s2 -72 -1 -107c-3 -39 6 -76 6 -114c0 -44 9 -87 13 -130c10 -86 63 -145 132 -188c64 -40 164 -38 229 18c41 36 73 79 97 127c32 65 42 136 55 206c-5 39 3 77 4 115c1 59 5 117 8 176c2 34 -26 58 -58 48c-5 -1 -10 -2 -15 -4c-13 -6 -21 -15 -21 -29
c-1 -54 -2 -107 -2 -162z" />
    <glyph glyph-name="V" unicode="V" horiz-adv-x="773" 
d="M363 -15c16 7 29 15 44 20c16 4 28 13 35 27c8 14 14 28 20 42c6 17 9 35 17 51c54 106 93 218 124 333c12 45 30 88 50 129c7 14 15 28 22 41c9 17 9 35 6 53c-2 11 -17 25 -26 25c-22 1 -51 -15 -57 -33c-7 -20 -11 -40 -19 -59c-32 -71 -54 -145 -72 -220
c-3 -13 -8 -25 -13 -37l-78 -185c-5 -11 -14 -22 -22 -31c-2 -2 -10 -2 -13 1c-4 2 -8 7 -10 11c-46 104 -80 212 -121 318c-7 17 -14 33 -18 51c-11 53 -35 102 -50 154c-1 5 -5 9 -7 14c-8 15 -31 24 -47 18c-10 -3 -19 -9 -27 -15c-9 -7 -14 -26 -9 -36
c8 -18 21 -36 26 -55c13 -56 37 -108 53 -162c24 -87 59 -170 86 -256c16 -51 41 -100 62 -150c8 -20 20 -36 44 -49z" />
    <glyph glyph-name="W" unicode="W" horiz-adv-x="1032" 
d="M923 695c10 -9 11 -21 8 -33c-3 -9 -7 -18 -13 -26c-23 -34 -32 -75 -48 -112c-2 -4 -4 -9 -4 -14c-1 -58 -23 -113 -34 -169c-13 -59 -23 -118 -36 -176c-10 -42 -23 -83 -36 -125c-1 -3 -6 -8 -10 -9c-15 -2 -24 -15 -36 -23c-13 -8 -28 -5 -38 7c-6 8 -14 16 -16 24
c-10 45 -31 86 -46 129c-31 91 -55 184 -84 276c-2 9 -7 17 -12 25c-2 3 -8 2 -13 3c-12 -26 -20 -54 -21 -83c-1 -24 -8 -47 -15 -70c-19 -62 -38 -125 -56 -187c-8 -28 -19 -54 -36 -78c-10 -14 -18 -26 -37 -31c-13 -3 -24 -15 -36 -23c-7 -4 -21 1 -24 9
c-3 7 -7 13 -8 20c-12 81 -37 159 -66 236l-6 13c-16 58 -33 115 -49 173c-12 42 -24 83 -30 126c-4 28 -7 57 -20 84c-5 10 2 18 8 26c3 3 7 6 11 9c26 18 56 8 61 -23c12 -69 31 -136 47 -204c5 -23 14 -46 21 -69c15 -50 39 -98 51 -149c6 -28 19 -54 29 -81
c3 -6 7 -7 12 -3c2 1 5 2 6 4c11 31 26 62 33 94c13 56 32 111 38 169c2 28 13 55 21 83c9 35 20 69 29 104c5 20 17 34 35 44c22 13 45 5 52 -19c16 -60 42 -117 54 -179c5 -31 18 -60 29 -89c17 -48 35 -95 46 -144c3 -14 12 -27 19 -39c1 -3 7 -4 11 -5c1 0 4 2 5 4
c4 7 8 13 10 20c4 11 7 23 9 34c15 66 29 132 47 197c6 21 10 42 14 63c8 56 31 106 51 158c7 18 19 33 40 38c13 3 24 0 33 -9z" />
    <glyph glyph-name="X" unicode="X" horiz-adv-x="725" 
d="M299 333c-17 -44 -43 -77 -70 -113c-36 -49 -62 -85 -98 -133c-11 -15 -20 -32 -29 -48c-5 -11 4 -30 15 -33c14 -5 29 -9 46 -13c9 7 19 14 27 23c35 40 70 78 98 123c21 32 43 41 64 74c3 5 16 5 20 0c15 -20 30 -40 43 -60c32 -50 73 -93 117 -135c25 -25 62 -24 89 1
c5 6 6 21 1 29c-5 9 -11 18 -19 26c-13 13 -29 24 -40 40c-46 59 -95 117 -136 181c-7 11 -15 22 -21 34c-5 9 -4 21 2 29c9 14 20 26 28 40c33 60 65 119 94 179c16 30 26 63 37 95c5 12 -13 33 -27 33c-22 0 -41 -5 -51 -23c-14 -27 -26 -57 -42 -84
c-24 -47 -50 -93 -77 -139c-3 -6 -8 -11 -13 -16c-3 -4 -16 -3 -20 1c-32 33 -54 74 -77 113c-25 42 -51 82 -76 124c-8 13 -19 17 -33 17c-8 0 -16 -1 -22 -4c-25 -10 -34 -36 -18 -61l70 -108c38 -62 76 -124 118 -192z" />
    <glyph glyph-name="Y" unicode="Y" horiz-adv-x="741" 
d="M90 673c31 -60 56 -122 99 -169c8 -10 15 -22 22 -33c18 -34 41 -64 65 -92c34 -40 39 -85 35 -147c-4 -67 -1 -135 0 -202c0 -21 36 -37 52 -29c19 10 31 26 31 54c1 51 -8 101 0 151c1 5 1 10 0 15c-10 31 0 62 1 93c0 18 5 32 14 46c8 13 17 26 26 38
c27 34 54 68 82 101c14 17 28 33 41 52c13 20 31 35 46 53c17 19 32 42 44 67c8 15 0 35 -15 37c-13 2 -43 15 -67 -8c-62 -81 -128 -159 -197 -233c-5 -6 -12 -10 -17 -15c-17 10 -18 10 -28 25c-12 16 -24 33 -36 47c-22 25 -41 52 -58 81c-6 9 -11 19 -18 28
c-19 24 -23 41 -44 59c-19 16 -35 21 -53 17c-5 -1 -11 -5 -14 -10c-5 -7 -7 -17 -11 -26z" />
    <glyph glyph-name="Z" unicode="Z" horiz-adv-x="756" 
d="M600 88l30 3c16 1 29 -18 23 -32l-12 -26c-6 -9 -13 -15 -23 -17c-36 -6 -72 -13 -110 -10c-36 4 -71 -1 -110 -3c-31 1 -66 6 -101 5c-30 0 -60 -1 -89 -7c-19 -3 -39 -3 -60 1c-15 3 -29 11 -39 24c-8 9 -11 21 -6 28c45 54 80 117 125 174c28 35 57 70 89 103
c14 16 27 32 40 49c19 25 39 48 59 72c40 48 74 99 100 157c5 11 -4 27 -18 27c-45 3 -91 4 -135 0c-47 -5 -94 -8 -142 -6c-16 1 -29 9 -42 20c-9 10 -9 24 1 32s21 14 33 14c18 0 35 0 53 -1c43 -3 86 -6 128 4c19 4 39 2 59 3c38 1 75 4 112 4c20 0 41 -1 60 -4
c24 -4 38 -34 28 -55c-8 -14 -16 -29 -26 -42c-40 -54 -71 -115 -113 -165c-6 -8 -12 -17 -15 -26c-10 -25 -28 -43 -50 -59c-10 -6 -20 -14 -25 -25c-22 -40 -56 -71 -85 -105c-30 -35 -51 -75 -76 -113c-5 -7 5 -21 14 -22c13 -2 26 -3 39 -4c42 -2 85 -3 128 -6
c53 -2 105 4 156 8z" />
    <glyph glyph-name="a" unicode="a" horiz-adv-x="857" 
d="M739 -12c10 7 18 14 28 21c8 7 12 21 8 35c-2 18 -8 34 -18 53c-12 30 -30 62 -39 97c-3 10 -9 24 -18 35c-30 56 -54 115 -82 175c-27 63 -54 121 -85 184c-14 32 -30 67 -48 98c-8 17 -20 24 -35 24s-27 -3 -37 -17c-48 -77 -96 -157 -127 -247
c-12 -32 -27 -60 -42 -88c-42 -80 -99 -196 -150 -266c-6 -7 -9 -20 -13 -27c-2 -28 7 -49 31 -59c0 0 3 -4 6 -4c9 -3 21 -3 24 4c11 17 23 38 35 59l55 94c12 17 27 31 46 28c26 0 51 0 78 -4c31 0 61 -3 91 0c42 7 86 4 129 7c36 0 58 -14 70 -51c2 -14 8 -28 14 -40
c10 -30 25 -58 40 -86c9 -18 21 -21 39 -25zM431 267c-38 0 -75 -3 -111 -7c-12 0 -22 14 -16 28c4 7 4 18 6 25c7 14 13 24 19 42c12 31 30 63 42 98c6 23 22 44 34 65c8 18 18 35 26 53c4 3 10 3 13 0c6 0 9 -7 11 -11c4 -3 6 -7 10 -14c32 -72 66 -149 99 -226
c3 -7 3 -14 6 -25c0 -3 -3 -17 -9 -17c-22 -4 -42 -4 -64 -7c-20 0 -44 -4 -66 -4z" />
    <glyph glyph-name="b" unicode="b" horiz-adv-x="782" 
d="M530 401c5 7 11 14 18 21c12 15 28 29 39 44c24 30 28 63 28 98c0 6 -1 10 -4 14c-30 63 -74 108 -147 116c-16 2 -30 3 -44 6c-29 6 -58 6 -88 -1c-19 -5 -39 -6 -58 -6c-40 0 -79 0 -118 -1c-28 -2 -52 -27 -52 -54c-4 -90 -7 -181 3 -272c7 -80 13 -161 20 -241
c2 -28 5 -53 -7 -80c-7 -12 5 -29 19 -33c14 -5 28 -7 44 -6c49 1 98 0 146 3c26 1 48 -11 73 -6c24 6 49 11 73 11c39 0 73 13 106 28c47 23 84 55 96 108c1 10 7 21 4 29c-10 27 -7 58 -24 83c-29 43 -57 85 -104 112c-5 3 -11 7 -16 13c-3 2 -5 8 -7 14zM195 612
c17 11 37 18 56 15c25 -1 49 2 73 0c42 -1 82 -7 123 -12c35 -5 57 -28 70 -58c13 -29 3 -57 -18 -81c-17 -19 -39 -31 -63 -38c-18 -7 -38 -12 -58 -14c-55 -4 -111 -8 -166 -18c-7 -1 -21 10 -22 16c0 2 -2 5 -2 7c-3 58 -1 117 4 176c2 3 3 4 3 7zM359 81
c-30 3 -59 2 -88 -1c-13 0 -24 3 -37 6c-4 0 -8 5 -9 8c-9 69 -19 136 -26 204c-2 19 6 28 23 34c25 8 52 15 80 15h81c16 0 33 -2 50 -9c52 -23 101 -49 129 -103c7 -15 17 -29 25 -43s6 -29 -1 -43c-16 -30 -37 -51 -73 -58c-24 -4 -48 -5 -73 -7c-27 -1 -55 -3 -81 -3z
" />
    <glyph glyph-name="c" unicode="c" horiz-adv-x="787" 
d="M656 579c12 -11 37 -52 29 -78c-3 -8 -10 -18 -27 -22h-7c-21 2 -38 29 -51 48c-3 5 -5 10 -8 12c-39 53 -98 84 -159 84c-42 0 -80 -15 -111 -43c-80 -72 -123 -160 -128 -263c-5 -91 4 -212 115 -244c41 -11 107 -23 147 -23c24 0 47 6 68 14s39 21 59 35
c8 5 15 21 23 26c3 2 6 5 9 8c5 5 11 11 18 12c3 1 8 1 11 1c9 0 21 -2 27 -9c7 -8 6 -29 0 -39c-45 -66 -108 -103 -197 -116c-16 -2 -33 -3 -49 -3c-67 0 -134 19 -213 61c-59 31 -92 86 -104 169c-5 39 -10 86 -7 132c3 61 30 113 54 158c39 67 92 114 145 157
c43 35 90 53 142 53c22 0 45 -3 68 -11c11 -3 20 -10 29 -17l3 -2c15 -12 30 -24 44 -36c4 -4 9 -8 14 -12c18 -17 38 -34 56 -52z" />
    <glyph glyph-name="d" unicode="d" horiz-adv-x="828" 
d="M107 202c0 -47 -4 -92 -4 -139c0 -31 17 -48 44 -58c21 -3 41 -3 62 -3c27 7 54 10 78 10c44 3 84 10 125 17s85 17 122 37c20 14 44 27 68 41c30 20 54 41 75 71c44 58 74 116 64 190c7 38 -14 68 -17 105c-20 41 -34 89 -75 119c-6 7 -10 14 -17 20
c-30 44 -81 58 -125 82h-17c-58 0 -112 10 -170 -4c-10 -3 -20 -3 -30 0c-41 7 -78 14 -115 21c-21 7 -41 0 -58 -14c-7 -3 -10 -13 -14 -20c-3 -4 -3 -10 -3 -14c0 -27 0 -54 3 -78c7 -51 7 -98 4 -149c0 -51 3 -102 3 -156c0 -24 0 -51 -3 -78zM358 616c23 0 47 3 71 0
c51 -7 98 -27 136 -68c34 -37 61 -81 74 -129c17 -44 17 -91 -7 -136c-3 -6 -6 -10 -6 -17c-31 -84 -95 -132 -180 -152c-65 -17 -132 -27 -200 -24c-7 0 -10 0 -17 3c-10 0 -24 14 -20 28c3 44 0 91 0 139c0 47 -4 91 -7 139c0 17 -4 30 -4 47c4 31 4 61 -3 92
c-3 10 0 20 0 30c0 44 3 51 47 51c28 0 97 -3 116 -3z" />
    <glyph glyph-name="e" unicode="e" horiz-adv-x="728" 
d="M610 703c-22 6 -48 3 -71 2c-38 -2 -132 -5 -179 -5c-27 0 -68 -4 -96 1c-29 5 -61 3 -92 2c-15 -1 -30 -7 -45 -11c-6 -1 -19 -18 -18 -24c4 -31 1 -61 -8 -92c-2 -7 0 -15 0 -22c1 -29 2 -57 2 -85c-1 -56 -5 -113 -1 -169c3 -36 4 -71 2 -107l-3 -85
c0 -21 2 -41 3 -61c1 -21 14 -33 30 -40c9 -4 20 -6 30 -5c18 1 36 7 54 7c74 1 148 1 223 -3c43 -2 87 -1 130 0c12 0 25 7 37 12c12 6 17 20 13 33c-7 21 -25 36 -45 34c-33 -4 -67 0 -100 -11c-35 5 -70 11 -106 14c-17 2 -36 -1 -53 -1c-29 -1 -57 -3 -85 -3
c-19 0 -34 16 -34 34c1 54 1 107 2 161c1 14 12 25 25 25c67 0 134 0 201 1c10 0 20 1 30 4c4 1 8 6 10 10c16 37 -10 64 -41 63c-21 0 -41 1 -62 -3c-41 -6 -82 -4 -123 -2c-10 1 -21 2 -30 6c-6 3 -13 10 -14 16c-8 63 -11 127 -4 191c3 32 14 42 45 41c13 0 26 1 38 -2
c53 -13 107 -9 161 -2c44 6 87 8 131 1c7 -1 15 -2 22 -1c8 1 16 3 23 5c25 9 33 35 18 56c-6 7 -14 8 -20 15z" />
    <glyph glyph-name="f" unicode="f" horiz-adv-x="677" 
d="M237 626l149 3c27 -1 67 -2 106 -5c23 -2 46 -1 68 5c17 5 26 17 31 34c4 15 -2 29 -17 35c-9 3 -19 6 -28 6c-36 0 -71 -4 -106 0c-52 5 -106 -8 -157 -2c-33 3 -65 -7 -96 1c-17 4 -35 2 -53 -3c-17 -5 -33 -24 -32 -40c4 -47 -7 -96 1 -142c-7 -83 2 -163 -3 -246
c-4 -65 10 -127 10 -192c-1 -20 6 -39 10 -57c5 -19 27 -29 47 -22l15 6c21 8 26 15 25 33c-1 22 -3 44 0 67c3 22 -6 43 -8 65c-1 20 1 40 3 60c0 8 6 14 13 18c10 4 20 8 30 9c17 2 35 2 53 2c31 -1 59 13 87 30c3 2 6 10 6 14c-5 23 -25 39 -46 36c-18 -2 -35 -6 -53 -8
c-25 -3 -51 -5 -76 -7c-8 -1 -19 10 -20 17c-1 5 -1 10 -2 15c-2 54 0 109 -8 162c-3 26 4 55 7 82c1 9 13 20 21 21s15 3 23 3z" />
    <glyph glyph-name="g" unicode="g" horiz-adv-x="747" 
d="M370 -4c9 -2 19 -3 29 -5c52 -8 102 -3 147 25c27 16 52 32 79 47c11 5 18 17 19 30c1 16 3 31 2 47c-2 35 -2 71 1 106c2 12 -3 25 -7 38c-7 23 -32 40 -53 30c-35 -16 -70 -11 -106 -8c-13 1 -25 5 -37 5c-21 0 -41 -5 -56 -21c-7 -6 -8 -13 -7 -21
c4 -13 10 -22 24 -28c26 -12 54 -8 82 -8c76 -1 79 14 82 -78c2 -20 -5 -35 -19 -48c-37 -32 -80 -45 -128 -38c-50 9 -99 23 -139 58c-16 14 -30 27 -42 44c-57 87 -55 177 -21 271c9 24 21 46 33 69c24 46 62 80 108 106c19 12 42 15 66 18c4 0 11 0 15 -1
c35 -13 68 -29 98 -51c20 -14 52 -37 76 -15c41 42 -63 98 -91 110c-18 9 -36 20 -55 28c-8 4 -19 7 -28 7c-46 0 -91 -4 -133 -29c-42 -27 -77 -57 -110 -95c-30 -33 -52 -68 -66 -110c-9 -26 -18 -53 -26 -79c-4 -12 -6 -25 -7 -37c-2 -15 15 -154 21 -166
c24 -61 56 -114 113 -150c34 -20 66 -38 105 -44c9 -1 19 -4 31 -7z" />
    <glyph glyph-name="h" unicode="h" 
d="M649 529c3 49 9 94 9 129c0 10 0 23 -3 36c-3 3 -10 9 -16 13c-23 6 -55 -10 -61 -33c-7 -25 -13 -51 -16 -74c-4 -45 -7 -100 -13 -145c0 -6 0 -16 -4 -23c-3 -6 -6 -13 -16 -16c-13 -3 -22 -9 -35 -9c-16 -4 -36 0 -52 -4c-64 -13 -126 -9 -187 -25h-23
c-22 3 -38 12 -42 35c-3 13 -3 29 -3 42c-3 61 -6 135 0 197v22c0 10 -13 23 -26 23c-12 0 -22 -3 -35 -13c-10 -3 -16 -13 -16 -23l-10 -180c0 -49 7 -94 0 -142c0 -10 3 -20 3 -29c7 -65 13 -162 10 -229c-3 -13 0 -26 0 -39c10 -42 36 -52 77 -32c7 3 13 9 17 16
c3 16 9 35 6 51c-6 42 -3 117 -10 155c-6 94 0 71 75 84c9 0 19 -3 29 -3c13 0 29 0 45 3c35 13 74 13 110 10c25 0 51 19 74 0c22 -19 6 -49 9 -78c7 -48 10 -125 7 -177c0 -6 3 -13 3 -23c0 -16 13 -29 26 -42c3 -3 13 -3 19 -3c7 0 13 7 23 10c16 3 22 16 26 32
c0 26 0 81 -4 103c0 13 -3 26 -3 39c3 36 -3 74 -3 110c0 22 -3 45 -3 68c6 58 0 116 13 164z" />
    <glyph glyph-name="i" unicode="i" horiz-adv-x="375" 
d="M145 231c0 -27 2 -65 0 -80c-7 -45 2 -87 19 -129c6 -17 14 -23 35 -22c11 0 22 1 28 11c21 30 37 62 22 101c-3 9 -5 20 -5 30c0 88 -7 197 -18 285c-3 28 -1 57 -6 85c-10 49 -16 97 -3 146c2 5 0 10 -1 16c-3 23 -30 39 -53 30c-24 -9 -40 -26 -41 -51
c-4 -54 -2 -108 4 -163c9 -90 24 -180 19 -259z" />
    <glyph glyph-name="j" unicode="j" horiz-adv-x="665" 
d="M559 190v72c3 43 6 74 6 105c0 87 -7 174 -4 261c1 21 -6 40 -14 58c-4 10 -14 14 -25 14c-17 0 -31 -7 -38 -23c-6 -11 -12 -24 -13 -37c-2 -28 -4 -56 -1 -84c4 -48 9 -96 4 -145c-1 -8 0 -16 2 -23c7 -28 4 -56 2 -84c-2 -26 -3 -52 -6 -77c-2 -23 -8 -46 -11 -69
c-2 -16 -9 -30 -22 -40l-32 -24c-37 -28 -78 -28 -119 -21c-7 1 -14 5 -20 9c-43 33 -79 69 -84 128c-1 7 -4 14 -6 22c-4 15 -27 24 -44 17c-7 -4 -14 -8 -20 -13c-10 -6 -15 -16 -14 -27c4 -46 13 -90 48 -124c12 -12 22 -27 32 -41c20 -30 49 -42 84 -43c28 -2 56 0 85 0
c23 0 45 6 68 14c32 13 61 30 88 53c39 32 44 42 52 91c2 10 1 21 2 31z" />
    <glyph glyph-name="k" unicode="k" horiz-adv-x="723" 
d="M197 373c-3 23 -11 45 -7 66c9 52 -2 130 0 181c1 17 -2 34 -3 51c-2 16 -18 33 -33 35c-22 3 -43 -7 -47 -26c-3 -12 -7 -24 -7 -36c1 -22 5 -54 6 -76c2 -98 4 -213 1 -311c-2 -54 6 -107 3 -161c-2 -22 5 -44 9 -65c1 -7 6 -13 10 -19c10 -13 25 -15 40 -8
c21 10 36 25 35 51c0 15 -1 29 -1 44c-1 34 -2 68 -2 103c0 30 8 58 33 79c9 8 15 19 23 28c13 15 27 16 38 3c23 -25 45 -51 71 -73c9 -8 18 -18 22 -29c12 -28 33 -48 53 -69c18 -19 36 -39 53 -60c21 -27 47 -49 71 -73c10 -10 23 -10 33 -2c27 22 30 34 19 64
c-10 25 -26 47 -45 65c-54 51 -93 113 -144 165c-22 23 -39 50 -59 74c-19 23 -17 40 3 66c4 6 9 12 16 16c27 17 47 43 70 65c21 21 40 43 61 65c13 14 27 28 47 35c6 2 12 7 19 11c19 14 22 39 7 58c-15 16 -37 20 -53 8c-8 -5 -16 -11 -23 -18c-31 -32 -62 -64 -91 -98
c-22 -24 -43 -47 -67 -69c-31 -27 -62 -55 -88 -89c-14 -20 -34 -36 -52 -52c-4 -3 -14 0 -21 1z" />
    <glyph glyph-name="l" unicode="l" horiz-adv-x="623" 
d="M365 15c40 -1 115 -27 148 13c16 20 14 53 -16 55c-73 4 -145 12 -220 3c-68 -8 -72 -5 -76 66c0 12 2 25 2 38c-1 35 1 70 -3 105c-2 23 -3 45 -4 68c-3 55 0 111 2 167c0 15 2 31 -2 45c-7 24 -4 50 -5 75v30c0 10 -15 24 -25 23c-18 0 -36 -2 -50 -17
c-9 -9 -17 -19 -15 -33c11 -70 13 -140 7 -212c-4 -38 -6 -76 -2 -114c7 -60 3 -121 -1 -182c-2 -20 -4 -40 -3 -60c0 -18 2 -35 6 -52c4 -20 24 -34 44 -33c53 3 106 7 160 11c17 1 35 3 53 4z" />
    <glyph glyph-name="m" unicode="m" horiz-adv-x="958" 
d="M478 108l-1 -1c-16 -5 -43 64 -50 78c-38 83 -79 159 -105 243c-38 126 -73 194 -141 251c-11 10 -33 22 -42 14c-10 -10 -33 -29 -35 -47c-6 -42 -4 -74 -1 -117c3 -50 10 -107 12 -152c-1 -11 1 -42 2 -51l3 -52c1 -20 3 -39 4 -57c0 -6 0 -20 -2 -28
c0 -52 2 -92 3 -144c1 -35 9 -51 36 -43c15 4 28 4 38 16c12 15 14 38 13 58c-1 38 -3 76 -4 114c-2 39 -15 145 -16 184c-2 39 3 122 3 167c35 -52 53 -138 81 -197c21 -46 54 -167 77 -211c23 -43 37 -112 97 -117c20 -2 43 -1 63 8s28 27 37 48c30 59 52 123 80 184
c20 43 39 88 59 131c10 22 21 45 31 68c4 10 10 19 15 28c4 7 6 17 12 23c5 5 6 -29 6 -31c0 -16 3 -34 4 -52c2 -33 11 -62 8 -100c0 -38 -1 -74 -2 -111c-1 -35 8 -68 9 -102c1 -24 -3 -61 10 -83c7 -14 16 -25 32 -27c59 -7 44 59 39 95c-3 23 -4 47 -5 71
c-4 85 2 170 0 255c-1 38 -4 77 -6 115c2 40 -6 79 -6 119c0 8 2 19 -2 24c-8 10 -20 25 -30 25c-29 -1 -62 -14 -77 -46c-29 -68 -62 -135 -92 -202c-36 -77 -76 -167 -111 -244c-12 -26 -32 -84 -46 -104z" />
    <glyph glyph-name="n" unicode="n" horiz-adv-x="760" 
d="M177 511c0 8 0 16 1 24c24 -39 37 -57 50 -75s30 -53 42 -71l42 -60c62 -89 123 -179 189 -264c15 -20 27 -58 53 -66c18 -5 50 0 64 13c30 26 23 78 26 114c6 56 12 113 15 169c3 59 -4 119 -3 179c0 61 6 123 4 185c0 16 -19 42 -33 45c-29 7 -54 -20 -53 -49
c0 -32 -1 -64 1 -96c2 -58 9 -117 9 -176c-1 -46 -4 -92 -8 -138c-1 -20 -3 -40 -3 -61c1 -14 4 -35 -6 -46c-2 -2 -67 84 -73 92c-48 64 -99 127 -144 194c-56 84 -107 171 -160 257c-11 18 -31 32 -51 17c-19 -14 -25 -32 -28 -56c-3 -37 -6 -74 -6 -112
c-1 -31 -5 -63 -5 -94c0 -76 8 -153 4 -230c-3 -57 -2 -112 1 -169c1 -28 22 -37 44 -32c21 5 55 2 50 42c-4 26 -7 53 -8 79c-2 68 0 137 -4 205c-4 60 -11 120 -10 180z" />
    <glyph glyph-name="o" unicode="o" horiz-adv-x="762" 
d="M672 316c-2 17 -2 31 -5 45c-7 46 -15 93 -24 139c-15 70 -60 117 -118 153c-28 17 -59 29 -87 46c-36 20 -68 19 -107 3c-74 -29 -86 -40 -135 -89l-30 -25c-37 -41 -50 -87 -59 -145c-2 -6 -2 -13 -4 -20c-14 -68 -15 -136 -8 -205c8 -74 48 -125 106 -167
c27 -20 60 -26 88 -44c23 -15 49 -20 75 -16c33 5 65 13 96 22c16 5 30 15 43 25c41 35 80 73 114 116c19 24 35 51 43 80c7 28 8 56 12 82zM177 338c2 20 4 55 10 90c5 35 18 68 35 100c26 47 47 63 95 85c22 11 65 27 89 18c36 -13 65 -25 96 -47c30 -21 39 -52 49 -86
c15 -50 24 -95 28 -147c1 -14 1 -28 1 -42c0 -50 -12 -89 -44 -126c-17 -19 -34 -40 -51 -59c-29 -35 -71 -50 -114 -50c-58 4 -73 20 -103 40c-54 36 -88 85 -91 152c-1 19 0 38 0 72z" />
    <glyph glyph-name="p" unicode="p" horiz-adv-x="643" 
d="M263 704c0 0 -26 -1 -38 0c-13 1 -26 4 -39 4c-15 -1 -31 -3 -45 -9c-22 -10 -43 -50 -40 -73c2 -23 9 -46 8 -69c-1 -59 -1 -118 -2 -177s-5 -118 0 -177c3 -42 4 -94 -1 -136c-4 -31 19 -71 55 -67c19 3 27 12 32 29c17 50 7 110 5 162c-1 10 4 21 15 26
c17 8 33 17 51 22c28 8 56 16 84 21c24 4 45 14 65 28c18 12 36 24 52 37c32 26 56 57 67 98c8 31 10 61 11 92c0 32 -8 60 -23 87c-8 15 -18 30 -28 45c-11 16 -27 32 -46 36c-37 8 -72 25 -113 21c-23 -2 -46 0 -70 0zM258 626c36 9 67 -4 100 -7c5 -1 10 -2 14 -5
c41 -27 72 -62 77 -114c1 -10 2 -21 2 -31c1 -27 -9 -51 -26 -72c-37 -47 -85 -72 -140 -85c-21 -5 -42 -6 -62 -9c-15 -2 -32 12 -31 27c4 33 2 66 3 99c2 60 4 119 -1 178c-1 10 10 21 19 21c16 0 31 -1 45 -2z" />
    <glyph glyph-name="q" unicode="q" horiz-adv-x="768" 
d="M647 56c44 -35 31 -85 -28 -72c-39 9 -74 40 -107 62l-9 -8c-13 -10 -27 -20 -43 -25c-31 -9 -63 -17 -96 -22c-26 -4 -52 1 -75 16c-28 18 -61 24 -88 44c-58 42 -98 93 -106 167c-7 69 -6 137 8 205c2 7 2 14 4 20c9 58 22 104 59 145l30 25c49 49 61 60 135 89
c39 16 71 17 107 -3c28 -17 59 -29 87 -46c58 -36 103 -83 118 -153c9 -46 17 -93 24 -139c3 -14 3 -28 5 -45c-4 -26 -5 -54 -12 -82c-8 -29 -24 -56 -43 -80c-14 -18 -29 -34 -44 -51c24 -16 53 -28 74 -47zM268 114c30 -20 45 -36 103 -40c30 0 60 7 84 24
c-18 19 -33 40 -46 57c-10 13 -4 35 10 44c17 10 35 12 54 2c16 -9 30 -25 43 -41l20 23c32 37 44 76 44 126c0 14 0 28 -1 42c-4 52 -13 97 -28 147c-10 34 -19 65 -49 86c-31 22 -60 34 -96 47c-24 9 -67 -7 -89 -18c-48 -22 -69 -38 -95 -85c-17 -32 -30 -65 -35 -100
c-6 -35 -8 -70 -10 -90c0 -34 -1 -53 0 -72c3 -67 37 -116 91 -152z" />
    <glyph glyph-name="r" unicode="r" horiz-adv-x="722" 
d="M205 8c-2 28 -5 55 -7 82s-6 54 -8 81c-6 106 6 92 94 103c26 3 43 -8 55 -29c11 -21 26 -41 43 -58c25 -27 49 -54 69 -85c15 -22 31 -43 48 -64c13 -15 27 -29 42 -41c6 -5 18 -6 28 -6c16 0 28 9 40 20c13 12 17 28 7 40c-16 19 -32 37 -49 54c-23 22 -44 45 -64 70
c-27 35 -56 68 -84 101c-3 4 -6 8 -9 11c-3 5 -1 18 5 21l78 48c68 43 98 103 89 180c-1 10 -4 20 -5 30c-7 49 -33 86 -73 113c-12 8 -25 14 -41 15c-48 0 -95 5 -143 0c-42 -5 -85 -4 -126 7c-14 4 -29 3 -44 2c-18 -1 -40 -23 -40 -41c0 -32 -5 -64 3 -96
c5 -21 4 -46 -2 -67c-9 -38 -12 -74 -6 -112c2 -17 1 -35 -2 -52c-6 -35 -2 -70 -1 -104c0 -33 1 -65 2 -98v-97c0 -11 7 -18 16 -23c27 -15 55 -19 85 -5zM192 497c1 25 2 50 4 75c2 16 17 35 34 39s34 7 52 9c32 3 65 5 97 7c33 1 65 -5 88 -30c30 -32 42 -68 29 -115
c-6 -23 -18 -41 -34 -58c-29 -30 -66 -49 -101 -69c-6 -4 -14 -6 -21 -7c-18 -2 -35 -5 -52 -11c-24 -8 -49 -6 -74 0c-10 2 -17 9 -19 19c-5 29 -11 58 -7 89c2 17 2 35 4 52z" />
    <glyph glyph-name="s" unicode="s" horiz-adv-x="706" 
d="M489 219l31 -48c-2 -25 -9 -50 -24 -72c-5 -7 -12 -16 -19 -20c-46 -24 -95 -24 -145 -22c-40 15 -80 29 -111 61c-13 14 -24 28 -27 48c-2 11 -5 23 -8 34c-2 8 -14 15 -22 15c-17 1 -33 -1 -48 -9c-10 -5 -17 -20 -15 -29c8 -35 23 -67 41 -98c13 -22 30 -44 54 -54
c34 -15 70 -29 108 -33c64 -7 126 7 188 21c8 2 17 9 24 14c12 8 23 17 34 26c49 39 66 89 50 151c-4 16 -7 32 -17 46c-36 47 -74 92 -128 119c-21 11 -42 21 -64 29c-46 15 -85 41 -126 64c-31 18 -47 45 -42 83v7c6 52 44 86 91 96c22 4 47 2 69 -4c28 -6 54 -18 79 -30
c26 -13 50 -28 60 -57c2 -5 6 -8 9 -12c14 -18 45 -19 62 -1c5 4 8 13 7 19c-5 28 -17 53 -39 73c-29 29 -63 47 -102 61c-39 12 -79 17 -118 19c-35 1 -71 -2 -103 -21c-68 -41 -106 -99 -109 -178c-1 -17 3 -33 10 -48c16 -33 39 -59 71 -77c39 -21 77 -45 119 -61
c33 -13 64 -31 94 -49c27 -15 50 -36 66 -63z" />
    <glyph glyph-name="t" unicode="t" horiz-adv-x="840" 
d="M753 666c5 -19 0 -35 -15 -49c-3 -4 -10 -9 -13 -8c-43 14 -90 5 -134 14c-29 5 -61 4 -91 4c-15 0 -32 -16 -32 -29c-1 -23 -1 -46 -1 -86c-7 -68 10 -149 14 -232c2 -25 4 -50 3 -75c0 -15 -1 -31 -1 -46c1 -38 -4 -76 11 -112c6 -15 -12 -40 -28 -41
c-13 -1 -25 -2 -38 -4c-34 -6 -46 3 -48 35c-1 13 -2 26 -1 38c1 64 4 127 5 191c0 23 -2 45 -2 68c-1 28 -2 55 -2 83c1 26 5 51 -1 76c-3 12 0 25 0 38c1 18 2 36 1 53c0 33 -7 42 -37 44c-28 2 -56 2 -84 3c-13 0 -26 -2 -38 -2c-13 0 -26 1 -38 5c-28 8 -55 20 -86 21
c-5 0 -12 10 -12 16s4 15 10 20c12 9 26 17 43 16c25 -2 50 -5 75 -6c70 -5 141 -10 213 3c15 3 31 3 46 3c41 0 82 2 122 -2s80 -9 120 -12c19 -2 34 -7 39 -27z" />
    <glyph glyph-name="u" unicode="u" horiz-adv-x="748" 
d="M552 509c-3 -40 -11 -81 -8 -121c3 -47 -18 -90 -21 -135c-23 -57 -51 -111 -92 -158c-22 -26 -59 -35 -91 -24c-68 25 -108 74 -121 145c-1 10 -2 21 -2 31c-3 66 -17 131 -17 198c1 38 -1 76 -6 114c-4 38 -9 76 -7 115c1 14 -10 23 -22 29c-29 13 -66 -12 -65 -43
c2 -36 4 -71 5 -107s2 -72 -1 -107c-3 -39 6 -76 6 -114c0 -44 9 -87 13 -130c10 -86 63 -145 132 -188c64 -40 164 -38 229 18c41 36 73 79 97 127c32 65 42 136 55 206c-5 39 3 77 4 115c1 59 5 117 8 176c2 34 -26 58 -58 48c-5 -1 -10 -2 -15 -4c-13 -6 -21 -15 -21 -29
c-1 -54 -2 -107 -2 -162z" />
    <glyph glyph-name="v" unicode="v" horiz-adv-x="773" 
d="M363 -15c16 7 29 15 44 20c16 4 28 13 35 27c8 14 14 28 20 42c6 17 9 35 17 51c54 106 93 218 124 333c12 45 30 88 50 129c7 14 15 28 22 41c9 17 9 35 6 53c-2 11 -17 25 -26 25c-22 1 -51 -15 -57 -33c-7 -20 -11 -40 -19 -59c-32 -71 -54 -145 -72 -220
c-3 -13 -8 -25 -13 -37l-78 -185c-5 -11 -14 -22 -22 -31c-2 -2 -10 -2 -13 1c-4 2 -8 7 -10 11c-46 104 -80 212 -121 318c-7 17 -14 33 -18 51c-11 53 -35 102 -50 154c-1 5 -5 9 -7 14c-8 15 -31 24 -47 18c-10 -3 -19 -9 -27 -15c-9 -7 -14 -26 -9 -36
c8 -18 21 -36 26 -55c13 -56 37 -108 53 -162c24 -87 59 -170 86 -256c16 -51 41 -100 62 -150c8 -20 20 -36 44 -49z" />
    <glyph glyph-name="w" unicode="w" horiz-adv-x="1032" 
d="M923 695c10 -9 11 -21 8 -33c-3 -9 -7 -18 -13 -26c-23 -34 -32 -75 -48 -112c-2 -4 -4 -9 -4 -14c-1 -58 -23 -113 -34 -169c-13 -59 -23 -118 -36 -176c-10 -42 -23 -83 -36 -125c-1 -3 -6 -8 -10 -9c-15 -2 -24 -15 -36 -23c-13 -8 -28 -5 -38 7c-6 8 -14 16 -16 24
c-10 45 -31 86 -46 129c-31 91 -55 184 -84 276c-2 9 -7 17 -12 25c-2 3 -8 2 -13 3c-12 -26 -20 -54 -21 -83c-1 -24 -8 -47 -15 -70c-19 -62 -38 -125 -56 -187c-8 -28 -19 -54 -36 -78c-10 -14 -18 -26 -37 -31c-13 -3 -24 -15 -36 -23c-7 -4 -21 1 -24 9
c-3 7 -7 13 -8 20c-12 81 -37 159 -66 236l-6 13c-16 58 -33 115 -49 173c-12 42 -24 83 -30 126c-4 28 -7 57 -20 84c-5 10 2 18 8 26c3 3 7 6 11 9c26 18 56 8 61 -23c12 -69 31 -136 47 -204c5 -23 14 -46 21 -69c15 -50 39 -98 51 -149c6 -28 19 -54 29 -81
c3 -6 7 -7 12 -3c2 1 5 2 6 4c11 31 26 62 33 94c13 56 32 111 38 169c2 28 13 55 21 83c9 35 20 69 29 104c5 20 17 34 35 44c22 13 45 5 52 -19c16 -60 42 -117 54 -179c5 -31 18 -60 29 -89c17 -48 35 -95 46 -144c3 -14 12 -27 19 -39c1 -3 7 -4 11 -5c1 0 4 2 5 4
c4 7 8 13 10 20c4 11 7 23 9 34c15 66 29 132 47 197c6 21 10 42 14 63c8 56 31 106 51 158c7 18 19 33 40 38c13 3 24 0 33 -9z" />
    <glyph glyph-name="x" unicode="x" horiz-adv-x="725" 
d="M299 333c-17 -44 -43 -77 -70 -113c-36 -49 -62 -85 -98 -133c-11 -15 -20 -32 -29 -48c-5 -11 4 -30 15 -33c14 -5 29 -9 46 -13c9 7 19 14 27 23c35 40 70 78 98 123c21 32 43 41 64 74c3 5 16 5 20 0c15 -20 30 -40 43 -60c32 -50 73 -93 117 -135c25 -25 62 -24 89 1
c5 6 6 21 1 29c-5 9 -11 18 -19 26c-13 13 -29 24 -40 40c-46 59 -95 117 -136 181c-7 11 -15 22 -21 34c-5 9 -4 21 2 29c9 14 20 26 28 40c33 60 65 119 94 179c16 30 26 63 37 95c5 12 -13 33 -27 33c-22 0 -41 -5 -51 -23c-14 -27 -26 -57 -42 -84
c-24 -47 -50 -93 -77 -139c-3 -6 -8 -11 -13 -16c-3 -4 -16 -3 -20 1c-32 33 -54 74 -77 113c-25 42 -51 82 -76 124c-8 13 -19 17 -33 17c-8 0 -16 -1 -22 -4c-25 -10 -34 -36 -18 -61l70 -108c38 -62 76 -124 118 -192z" />
    <glyph glyph-name="y" unicode="y" horiz-adv-x="741" 
d="M90 673c31 -60 56 -122 99 -169c8 -10 15 -22 22 -33c18 -34 41 -64 65 -92c34 -40 39 -85 35 -147c-4 -67 -1 -135 0 -202c0 -21 36 -37 52 -29c19 10 31 26 31 54c1 51 -8 101 0 151c1 5 1 10 0 15c-10 31 0 62 1 93c0 18 5 32 14 46c8 13 17 26 26 38
c27 34 54 68 82 101c14 17 28 33 41 52c13 20 31 35 46 53c17 19 32 42 44 67c8 15 0 35 -15 37c-13 2 -43 15 -67 -8c-62 -81 -128 -159 -197 -233c-5 -6 -12 -10 -17 -15c-17 10 -18 10 -28 25c-12 16 -24 33 -36 47c-22 25 -41 52 -58 81c-6 9 -11 19 -18 28
c-19 24 -23 41 -44 59c-19 16 -35 21 -53 17c-5 -1 -11 -5 -14 -10c-5 -7 -7 -17 -11 -26z" />
    <glyph glyph-name="z" unicode="z" horiz-adv-x="756" 
d="M600 88l30 3c16 1 29 -18 23 -32l-12 -26c-6 -9 -13 -15 -23 -17c-36 -6 -72 -13 -110 -10c-36 4 -71 -1 -110 -3c-31 1 -66 6 -101 5c-30 0 -60 -1 -89 -7c-19 -3 -39 -3 -60 1c-15 3 -29 11 -39 24c-8 9 -11 21 -6 28c45 54 80 117 125 174c28 35 57 70 89 103
c14 16 27 32 40 49c19 25 39 48 59 72c40 48 74 99 100 157c5 11 -4 27 -18 27c-45 3 -91 4 -135 0c-47 -5 -94 -8 -142 -6c-16 1 -29 9 -42 20c-9 10 -9 24 1 32s21 14 33 14c18 0 35 0 53 -1c43 -3 86 -6 128 4c19 4 39 2 59 3c38 1 75 4 112 4c20 0 41 -1 60 -4
c24 -4 38 -34 28 -55c-8 -14 -16 -29 -26 -42c-40 -54 -71 -115 -113 -165c-6 -8 -12 -17 -15 -26c-10 -25 -28 -43 -50 -59c-10 -6 -20 -14 -25 -25c-22 -40 -56 -71 -85 -105c-30 -35 -51 -75 -76 -113c-5 -7 5 -21 14 -22c13 -2 26 -3 39 -4c42 -2 85 -3 128 -6
c53 -2 105 4 156 8z" />
    <glyph glyph-name="zero" unicode="0" horiz-adv-x="697" 
d="M597 346v40c-10 71 -26 142 -42 211c-4 16 -14 28 -20 42c-19 42 -55 62 -97 71c-13 0 -26 0 -40 3c-57 7 -106 -16 -151 -49c-66 -54 -98 -129 -124 -210c0 -46 -16 -88 -23 -133c-3 -49 4 -123 26 -165c20 -42 45 -84 79 -121c9 -9 18 -19 35 -25
c55 -27 113 -29 172 -10c16 3 30 13 39 23c33 25 58 54 78 91c16 29 32 57 36 87c6 39 28 71 28 110c0 16 4 33 4 35zM526 360c-4 -19 0 -36 -7 -52c-10 -43 -23 -81 -35 -123c-17 -39 -42 -71 -76 -101c-3 -3 -10 -7 -12 -7c-36 -3 -72 -9 -101 13c-13 7 -26 17 -38 27
c-17 12 -30 29 -40 51c-16 36 -32 72 -36 114c-3 29 -3 59 4 88c3 16 10 28 10 45c10 71 42 130 84 185c6 7 13 10 20 10c29 3 54 12 81 22c35 10 64 -3 87 -35c13 -20 22 -39 26 -62c6 -39 19 -78 26 -117c3 -20 3 -39 7 -58z" />
    <glyph glyph-name="one" unicode="1" horiz-adv-x="499" 
d="M299 658c0 20 -10 34 -24 47c-10 10 -26 13 -33 3c-13 -7 -23 -20 -33 -30c-23 -13 -50 -26 -76 -30c-20 -6 -23 -13 -23 -33c3 -20 16 -33 29 -30l54 10c13 0 26 -10 26 -20c3 -26 7 -53 0 -76c-7 -56 -10 -112 -13 -169c-4 -43 -4 -89 -7 -136c0 -33 -3 -66 -3 -99
c0 -14 -10 -23 -23 -23c-14 -4 -27 0 -40 -4c-17 0 -33 -26 -33 -43c3 -13 16 -20 33 -23c20 -3 139 -3 179 -3c43 3 73 23 86 63c3 6 -3 23 -13 26c-10 0 -20 7 -30 7c-13 0 -30 -4 -43 -4c-10 0 -17 7 -20 14c-3 10 -7 20 -7 30c0 63 -10 126 4 189c3 9 3 19 3 29
c0 24 -3 47 0 70c7 26 -3 50 0 76v7c3 33 7 136 7 152z" />
    <glyph glyph-name="two" unicode="2" horiz-adv-x="697" 
d="M295 75l-3 3c0 3 -3 7 0 7c13 16 27 30 43 43c60 56 98 111 140 179c19 31 33 50 39 82c9 48 15 91 15 142c0 17 -5 31 -8 47c-10 33 -27 66 -47 93c-13 20 -33 36 -56 43c-33 10 -70 10 -103 -3c-59 -24 -109 -60 -152 -100c-23 -23 -40 -49 -43 -79v-23
c3 -17 23 -27 36 -17c24 13 47 30 57 60c6 13 16 23 29 33c20 10 40 26 60 36c36 23 83 13 109 -23c14 -17 24 -33 24 -53c3 -33 3 -66 6 -99c0 -20 -6 -40 -16 -60c-30 -63 -70 -126 -113 -179c-17 -20 -36 -36 -56 -53c-27 -20 -57 -36 -83 -53c-23 -16 -43 -29 -63 -46
c-10 -7 -13 -17 -7 -27c0 -6 7 -13 14 -16c29 -7 63 -20 96 -20c89 -3 178 -3 268 7c22 4 51 4 66 13c22 13 36 22 49 42c3 8 1 11 -3 18c-10 16 -23 19 -39 16c-53 -7 -110 -13 -182 -13h-77z" />
    <glyph glyph-name="three" unicode="3" horiz-adv-x="664" 
d="M100 121c10 -23 26 -47 36 -66c9 -20 27 -31 43 -37c68 -26 172 -34 202 -29c48 8 89 35 123 66c35 36 66 76 59 135c-3 17 -6 33 -13 50c-14 43 -33 83 -66 112c-4 3 -4 3 -8 8c-9 9 -9 23 0 36c4 3 11 9 15 16c29 24 39 56 45 93c3 10 0 20 0 29c-3 14 -10 24 -10 37
c-9 39 -32 73 -53 102c-3 7 -10 13 -16 18c-33 16 -66 36 -102 26h-24c-33 0 -63 -10 -92 -31c-17 -13 -37 -22 -57 -35c-6 -4 -13 -10 -23 -17c-6 -6 -10 -17 -6 -30c0 -7 13 -20 26 -23c10 0 20 0 29 3c21 10 41 20 60 30c24 17 50 20 79 24c11 3 21 0 31 -7
c40 -30 63 -69 56 -119c-3 -34 -13 -57 -40 -76c-16 -14 -29 -24 -53 -27c-20 0 -39 -4 -60 -7c-16 -3 -32 -13 -46 -23c-13 -16 -16 -30 0 -46c14 -17 30 -26 54 -26l58 9c21 0 37 -3 53 -16c10 -11 24 -21 34 -30c39 -39 46 -113 20 -152c-10 -17 -26 -34 -50 -40
c-39 -20 -76 -20 -119 -4c-7 4 -20 4 -30 7c-33 13 -60 27 -69 66c-4 17 -27 27 -44 24c-29 -3 -42 -21 -42 -50z" />
    <glyph glyph-name="four" unicode="4" 
d="M453 682c-19 -21 -53 -58 -81 -90c-42 -38 -83 -76 -128 -114c-13 -16 -28 -29 -41 -42c-29 -25 -54 -51 -83 -76c-6 -7 -10 -10 -13 -16c-6 -10 -9 -19 -3 -29c3 -6 10 -13 16 -13c45 7 83 -3 124 -9c48 -6 99 -10 147 0c19 3 38 3 57 6c16 0 29 -9 35 -25
c6 -29 13 -115 10 -150c-4 -32 -7 -63 -7 -95c0 -26 3 -39 32 -32c16 0 29 3 45 3c6 3 15 16 15 22c0 19 -3 35 0 51c10 54 7 105 4 156v58c0 9 3 19 12 25c23 6 42 16 58 32c3 3 3 9 6 13c0 6 -6 16 -13 16c-16 3 -35 3 -51 6c-19 0 -28 6 -28 25c-3 26 -7 51 -7 80
c-6 64 -6 127 -6 191c0 25 -19 38 -45 32c-15 -3 -35 -7 -55 -25zM337 353c-29 -3 -51 -3 -77 7c-6 3 -9 13 -6 19l60 67c23 22 51 38 70 63c19 23 42 42 64 64c3 3 9 3 13 0c6 0 9 -6 9 -9c0 -36 0 -71 3 -102c0 -19 0 -39 4 -61c0 -22 -10 -35 -35 -38
c-35 -6 -70 -8 -105 -10z" />
    <glyph glyph-name="five" unicode="5" horiz-adv-x="713" 
d="M223 406c33 0 71 18 93 25c59 23 152 -3 188 -70c24 -55 34 -117 18 -177c-12 -46 -44 -64 -86 -86c-26 -17 -55 -32 -84 -40c-39 -9 -77 -6 -109 16c-17 10 -33 24 -42 39c-13 19 -17 45 -23 67c-6 17 0 43 -32 36c-25 -7 -42 -13 -45 -41c-8 -61 39 -134 98 -167
c40 -22 93 -19 117 -14c73 15 132 20 184 52c48 28 99 74 102 141c3 20 3 38 8 54c9 65 -5 126 -40 174c-45 61 -109 97 -186 94c-35 0 -71 -7 -106 -17c-25 -5 -42 0 -48 23c-7 26 -13 52 -20 77c-6 32 3 45 36 45c29 -4 58 -6 86 -9c59 -4 120 -7 178 -7c25 0 98 9 77 45
s-68 30 -111 25c-47 -5 -93 -3 -141 0c-43 0 -89 -3 -131 7c-48 10 -83 -10 -80 -54c0 -36 9 -71 16 -106c9 -33 21 -68 32 -100c3 -10 19 -32 51 -32z" />
    <glyph glyph-name="six" unicode="6" horiz-adv-x="721" 
d="M394 -19c15 -2 31 -2 48 -2c41 2 79 12 114 38c52 32 78 103 58 158c-38 121 -198 150 -285 112c-36 -13 -61 -39 -93 -58c-6 -6 -16 -13 -23 -10c-6 0 -9 14 -13 22c-15 71 -3 132 36 197c42 70 90 131 166 169l68 30c10 3 23 10 32 10c6 3 13 0 19 3c32 9 23 57 -9 57
c-29 0 -67 -6 -96 -16c-68 -19 -125 -64 -176 -109c-40 -38 -65 -86 -94 -135c-32 -48 -48 -103 -45 -163c7 -71 36 -120 67 -182c19 -36 59 -56 84 -69c19 -12 39 -22 61 -32c26 -10 51 -16 81 -20zM425 241c80 0 141 -89 106 -156c-13 -29 -58 -52 -86 -42
c-46 13 -87 29 -132 42c-35 12 -32 42 -25 64c12 41 93 92 137 92z" />
    <glyph glyph-name="seven" unicode="7" horiz-adv-x="699" 
d="M516 708c-35 0 -73 0 -107 -3c-41 -7 -85 -7 -130 -7c-41 -3 -81 0 -122 0c-10 0 -19 0 -29 -3c-16 -3 -25 -19 -28 -34c0 -10 9 -22 16 -26c9 0 15 -6 22 -6c47 0 94 -9 138 3c57 -9 114 0 174 0h6c3 -3 6 -9 6 -12c0 -7 -3 -13 -6 -19c-32 -48 -60 -98 -82 -152
c-3 -6 -9 -15 -13 -22c-37 -66 -72 -129 -110 -192c-31 -57 -60 -117 -88 -176c-3 -7 -3 -16 0 -22c6 -10 12 -16 19 -26c9 -9 22 -12 31 -6c10 6 16 9 22 16c22 31 41 63 60 91c7 10 13 16 13 25c0 22 12 35 22 51c6 9 16 19 19 28c16 47 44 85 66 129c35 57 66 114 98 174
c15 31 31 60 53 85c16 22 26 44 32 69c6 13 -10 32 -22 32c-22 3 -41 3 -60 3z" />
    <glyph glyph-name="eight" unicode="8" horiz-adv-x="708" 
d="M100 534c17 -76 59 -128 135 -148c6 -4 12 -7 19 -11c10 -3 15 -19 6 -22c-9 -11 -19 -21 -32 -24c-42 -23 -75 -57 -102 -96c-4 -5 -6 -16 -9 -19c0 -18 -4 -34 -4 -50c-3 -36 7 -66 30 -95c6 -10 12 -20 19 -30c24 -27 53 -43 89 -50c34 -9 69 -6 106 -6
c40 -3 76 10 109 29c16 10 33 20 46 27c24 14 40 30 52 50c7 6 15 13 15 18c6 28 6 57 17 83c2 4 0 11 0 14c-4 29 -15 59 -32 83c-22 26 -38 55 -69 76c-4 3 -6 7 -9 9v14c43 36 78 82 110 125c5 27 9 53 12 72c-7 18 -12 27 -19 37c-10 29 -31 49 -53 66
c-10 6 -16 13 -27 13c-52 7 -106 13 -159 16c-86 4 -106 -3 -181 -56c-10 -7 -20 -17 -31 -22c-12 -36 -25 -70 -38 -103zM380 637h41h12c24 -4 73 -54 76 -77c0 -12 -3 -26 -10 -36c-24 -43 -62 -73 -105 -93c-8 -3 -17 -3 -21 0c-25 11 -53 17 -78 24
c-35 13 -64 29 -83 59c-17 24 -14 59 10 84c19 16 42 28 69 35c29 6 59 9 89 4zM361 46c-30 -3 -50 3 -70 13c-37 16 -60 43 -79 72c-17 33 -14 65 14 93c5 9 12 16 18 23c35 22 67 47 101 66c12 9 28 12 41 3c8 -3 11 -6 14 -6c49 -23 75 -70 91 -120
c15 -38 -5 -92 -42 -115c-28 -20 -60 -36 -88 -29z" />
    <glyph glyph-name="nine" unicode="9" horiz-adv-x="687" 
d="M178 21c4 0 4 -4 6 -8c21 -13 43 -19 66 -23c21 -2 42 -10 60 -2c23 6 46 23 65 35c43 33 78 69 115 112c56 69 88 147 95 236c3 43 3 85 -3 128c-7 39 -27 75 -46 112c-17 35 -69 66 -105 78c-50 17 -96 23 -145 20c-42 -3 -79 -20 -112 -42c-12 -7 -34 -22 -45 -37
c-25 -34 -52 -87 3 -170c10 -13 17 -27 27 -40c56 -72 154 -88 232 -45c23 12 66 35 89 48c39 20 13 -79 10 -91c-4 -23 -10 -46 -20 -69c-6 -16 -29 -56 -39 -72c-20 -40 -33 -46 -69 -75c-33 -33 -72 -66 -122 -43c-10 2 -16 10 -23 16c-16 13 -22 40 -43 50
c-23 12 -45 -8 -45 -31c-3 -33 22 -65 49 -87zM277 630c58 -3 141 -17 183 -71c7 -11 7 -27 0 -37c-26 -43 -88 -69 -137 -81c-31 -8 -60 2 -79 25c-17 20 -29 39 -39 62c-17 37 0 83 42 95c10 4 16 4 30 7z" />
    <glyph glyph-name="asterisk" unicode="*" horiz-adv-x="537" 
d="M346 575c4 3 7 10 11 13c7 4 13 11 20 14c21 7 38 21 52 38c0 4 3 7 7 10c3 4 0 18 -4 21c-6 4 -13 7 -17 4c-14 -4 -27 -11 -41 -18c-21 -10 -41 -20 -62 -31c-28 -13 -38 -7 -38 21c0 14 -3 24 -3 38c0 10 -18 21 -28 21c-14 -4 -24 -7 -34 -18c-11 -7 -7 -17 -7 -27
v-14c-4 -3 -11 -10 -18 -10c-3 3 -6 3 -10 3c-21 14 -41 10 -58 0c-4 0 -4 0 -7 -3c-4 0 -4 -11 0 -14c10 -21 34 -28 51 -45c4 -3 4 -14 0 -17c-10 -10 -20 -17 -31 -24c-13 -7 -20 -21 -27 -31c-4 -7 -4 -21 3 -24c4 -4 11 -11 17 -7c18 0 31 7 49 7c13 3 27 17 41 10
c17 -10 14 -31 17 -45c4 -3 4 -3 4 -7c3 -7 10 -13 17 -13c14 -4 27 -4 38 -4c14 4 24 14 24 24c-4 11 -4 21 -7 31c0 14 10 21 21 17c13 -3 27 -10 41 -13c10 -4 17 0 24 3c10 0 14 10 14 17c-4 24 -10 42 -31 52c-10 3 -21 10 -28 21z" />
    <glyph glyph-name="backslash" unicode="\" horiz-adv-x="782" 
d="M100 709v9s3 2 3 6c11 15 35 20 47 6c10 -6 18 -16 21 -27c20 -43 48 -84 72 -123c27 -47 62 -87 90 -131c14 -27 30 -52 44 -78c21 -30 42 -60 62 -93c45 -68 90 -138 135 -205c30 -45 62 -86 92 -129c7 -10 13 -21 15 -30c3 -12 0 -21 -5 -27c-10 -9 -18 -14 -30 -14
c-22 0 -36 5 -46 24c-30 44 -56 90 -82 133c-30 48 -60 94 -94 140c-21 34 -47 66 -61 106c-4 5 -10 11 -12 17c-22 37 -46 74 -70 110c-35 51 -68 108 -104 162c-27 35 -47 78 -69 119c-5 6 -5 16 -8 25z" />
    <glyph glyph-name="bullet" unicode="&#x2022;" horiz-adv-x="386" 
d="M286 396c0 34 -20 54 -54 51c-51 0 -94 -21 -120 -62c-16 -20 -16 -50 0 -67c31 -31 69 -42 109 -31c75 29 65 37 65 109z" />
    <glyph glyph-name="colon" unicode=":" horiz-adv-x="318" 
d="M203 299c3 14 6 32 6 48c0 20 -12 32 -32 30c-30 0 -55 -12 -70 -36c-9 -12 -9 -30 0 -40c18 -18 40 -24 64 -18c8 3 20 10 32 16zM176 178c-30 -3 -54 -18 -69 -47c-3 -8 -6 -15 0 -24c13 -24 37 -37 60 -26c14 5 25 13 37 21c10 8 16 24 13 36c0 27 -16 40 -41 40z" />
    <glyph glyph-name="comma" unicode="," horiz-adv-x="353" 
d="M150 -156c23 0 32 3 45 19c13 13 26 23 33 39c26 39 35 78 13 120c-17 35 -39 68 -68 97c-10 13 -33 13 -49 3l-16 -16c-10 -10 -10 -23 -3 -32c13 -23 26 -46 38 -65c17 -23 17 -45 4 -71c-7 -13 -16 -23 -23 -36c-3 -6 -6 -16 -10 -23c-6 -13 7 -32 20 -32
c6 -3 9 -3 16 -3z" />
    <glyph glyph-name="ellipsis" unicode="&#x2026;" horiz-adv-x="863" 
d="M137 -11h6c21 3 39 12 56 24c15 9 21 24 21 39c0 6 -3 15 -9 18c-3 6 -9 9 -17 12c-21 8 -42 5 -63 -6l-18 -9c-9 -9 -15 -27 -12 -39l18 -27c3 -6 12 -9 18 -12zM443 -11h6c6 3 15 6 18 12l18 27c3 12 -3 30 -12 39l-18 9c-21 11 -42 14 -63 6c-8 -3 -14 -6 -17 -12
c-6 -3 -9 -12 -9 -18c0 -15 6 -30 21 -39c17 -12 35 -21 56 -24zM680 -11h6c21 3 39 12 56 24c15 9 21 24 21 39c0 6 -3 15 -9 18c-3 6 -9 9 -17 12c-21 8 -42 5 -63 -6l-18 -9c-9 -9 -15 -27 -12 -39l18 -27c3 -6 12 -9 18 -12z" />
    <glyph glyph-name="exclam" unicode="!" horiz-adv-x="348" 
d="M140 218c19 0 42 -3 61 -3c10 0 19 9 19 19c0 13 0 29 -3 45c-16 71 -19 145 -26 219c-3 49 -3 97 0 149c0 12 0 22 -3 35c0 6 -10 19 -19 19c-7 4 -13 4 -23 4c-29 -7 -42 -20 -42 -49c-3 -55 0 -109 -3 -164c-3 -39 0 -78 6 -116c7 -52 4 -107 33 -158zM182 60
c-7 -3 -17 -7 -23 -13c-10 -6 -13 -23 -10 -32c4 -7 10 -13 13 -20c7 -9 20 -16 32 -12c13 3 29 6 42 12c13 7 16 26 7 39c-16 19 -36 23 -61 26z" />
    <glyph glyph-name="exclamdown" unicode="&#xa1;" horiz-adv-x="348" 
d="M182 627c25 3 45 7 61 26c9 13 6 32 -7 39c-13 6 -29 9 -42 12c-12 4 -25 -3 -32 -12c-3 -7 -9 -13 -13 -20c-3 -9 0 -26 10 -32c6 -6 16 -10 23 -13zM140 469c-29 -51 -26 -106 -33 -158c-6 -38 -9 -77 -6 -116c3 -55 0 -109 3 -164c0 -29 13 -42 42 -49c10 0 16 0 23 4
c9 0 19 13 19 19c3 13 3 23 3 35c-3 52 -3 100 0 149c7 74 10 148 26 219c3 16 3 32 3 45c0 10 -9 19 -19 19c-19 0 -42 -3 -61 -3z" />
    <glyph glyph-name="numbersign" unicode="#" horiz-adv-x="880" 
d="M496 16c3 7 3 10 3 16c4 47 22 87 32 131c3 15 15 25 31 25c30 -3 58 5 93 2c13 -2 28 3 41 7c15 3 25 16 30 31c3 13 -5 28 -18 38c-16 8 -28 8 -44 8c-19 0 -37 -3 -56 -5c-18 0 -31 12 -24 27c6 28 11 56 21 84c10 23 22 38 50 41c21 0 41 3 62 3c12 3 25 3 34 3
c19 2 34 28 28 47c0 6 -3 12 -6 12c-19 12 -34 24 -56 22c-13 -3 -21 -6 -34 -6c-10 0 -19 3 -31 6c0 34 6 62 16 90c5 13 8 24 12 37c3 12 -19 37 -35 34c-15 -2 -28 -6 -30 -22c-7 -18 -10 -36 -16 -59c-9 -30 -12 -65 -32 -93c-18 -3 -31 -9 -49 -13
c-35 -2 -68 -2 -103 -8c-3 -4 -15 8 -15 12c9 34 15 72 28 105c9 31 12 63 9 97c-3 7 -15 19 -25 15c-18 -6 -34 -15 -40 -36c-9 -45 -21 -84 -31 -129c-6 -18 -10 -36 -16 -58c-2 -6 -9 -16 -19 -19c-52 -12 -99 -40 -158 -40c-15 0 -31 -10 -43 -18c-7 -7 -7 -23 3 -32
c12 -13 28 -19 40 -16c25 7 53 7 74 19c17 9 35 12 53 16h20c5 -4 8 -16 5 -28c-9 -22 -18 -47 -25 -68c-5 -38 -30 -53 -64 -60c-10 0 -20 0 -29 -3c-31 -6 -59 -18 -74 -50c0 -6 0 -12 5 -18c4 -6 7 -10 13 -10c4 -3 10 -3 12 -3c28 3 53 7 79 10c5 3 15 -7 15 -13
c-13 -40 -10 -84 -25 -121c0 -3 0 -10 4 -13c0 -6 3 -8 8 -12c3 -3 10 -6 13 -3c25 12 43 28 53 53c6 18 15 33 15 53c3 15 6 31 10 46c6 13 15 22 31 25c31 3 65 6 99 0c7 0 16 -12 16 -22c0 -3 -3 -9 -3 -13c-6 -28 -16 -58 -23 -86c-2 -19 -2 -38 -2 -56
c0 -3 6 -13 12 -16c0 -3 10 -3 13 0c12 10 28 19 43 34zM465 259h-43c-78 0 -81 3 -63 71c4 7 7 13 7 20c6 24 18 40 46 43c35 3 69 18 109 12c7 0 15 -9 15 -15c-8 -38 -18 -75 -33 -109c-7 -15 -20 -22 -38 -22z" />
    <glyph glyph-name="period" unicode="." horiz-adv-x="320" 
d="M137 -11h6c21 3 39 12 56 24c15 9 21 24 21 39c0 6 -3 15 -9 18c-3 6 -9 9 -17 12c-21 8 -42 5 -63 -6l-18 -9c-9 -9 -15 -27 -12 -39l18 -27c3 -6 12 -9 18 -12z" />
    <glyph glyph-name="question" unicode="?" horiz-adv-x="667" 
d="M567 536c0 6 0 25 -6 43c-4 25 -16 47 -35 63c-28 16 -53 34 -81 47c-32 12 -66 19 -100 16c-38 -4 -70 -19 -105 -32c-31 -15 -59 -37 -81 -65c-22 -32 -41 -63 -56 -95c-3 -7 -3 -10 -3 -16s9 -19 18 -19c13 -3 25 3 32 13c9 9 18 22 25 35c34 63 90 94 157 104
c13 3 25 3 35 0c34 -10 62 -26 90 -44c19 -16 28 -41 19 -67c-3 -13 -9 -28 -16 -41c-3 -9 -9 -18 -15 -22c-35 -25 -66 -56 -110 -68c-25 -4 -45 -16 -66 -29c-32 -12 -51 -37 -69 -62c-7 -13 -13 -28 -10 -41c7 -28 13 -57 22 -85c3 -16 25 -19 35 -10c15 10 25 22 28 41
c6 17 12 32 12 48c3 34 23 53 51 66c32 15 63 28 91 47c31 18 60 40 88 59c34 25 53 59 50 114zM247 -17c9 3 25 3 40 9c11 3 20 10 29 19c16 13 13 35 -9 44c-9 3 -20 6 -29 6c-19 -3 -41 -9 -60 -15c-6 0 -9 -7 -9 -10c-12 -25 6 -53 38 -53z" />
    <glyph glyph-name="questiondown" unicode="&#xbf;" horiz-adv-x="668" 
d="M421 706c-9 -3 -25 -3 -40 -9c-11 -3 -20 -10 -29 -19c-16 -13 -13 -35 9 -44c9 -3 20 -6 29 -6c19 3 41 9 60 15c6 0 9 7 9 10c12 25 -6 53 -38 53zM101 153c0 -6 0 -25 6 -43c4 -25 16 -47 35 -63c28 -16 53 -34 81 -47c32 -12 66 -19 100 -16c38 4 70 19 105 32
c31 15 59 37 81 65c22 32 41 63 56 95c3 7 3 10 3 16s-9 19 -18 19c-13 3 -25 -3 -32 -13c-9 -9 -18 -22 -25 -35c-34 -63 -90 -94 -157 -104c-13 -3 -25 -3 -35 0c-34 10 -62 26 -90 44c-19 16 -28 41 -19 67c3 13 9 28 16 41c3 9 9 18 15 22c35 25 66 56 110 68
c25 4 45 16 66 29c32 12 51 37 69 62c7 13 13 28 10 41c-7 28 -13 57 -22 85c-3 16 -25 19 -35 10c-15 -10 -25 -22 -28 -41c-6 -17 -12 -32 -12 -48c-3 -34 -23 -53 -51 -66c-32 -15 -63 -28 -91 -47c-31 -18 -60 -40 -88 -59c-34 -25 -53 -59 -50 -114z" />
    <glyph glyph-name="quotedbl" unicode="&#x22;" horiz-adv-x="468" 
d="M228 637c0 -36 -6 -72 -14 -108c0 -20 0 -59 -26 -63c-19 -3 -29 12 -32 29c-13 36 -20 73 -17 109c4 17 4 44 10 66c7 14 13 27 26 30c3 0 10 3 13 0c34 -10 40 -33 40 -63zM368 637c0 -36 -6 -72 -14 -108c0 -20 0 -59 -26 -63c-19 -3 -29 12 -32 29
c-13 36 -20 73 -17 109c4 17 4 44 10 66c7 14 13 27 26 30c3 0 10 3 13 0c34 -10 40 -33 40 -63z" />
    <glyph glyph-name="quotesingle" unicode="'" horiz-adv-x="289" 
d="M189 637c0 -36 -6 -72 -14 -108c0 -20 0 -59 -26 -63c-19 -3 -29 12 -32 29c-13 36 -20 73 -17 109c4 17 4 44 10 66c7 14 13 27 26 30c3 0 10 3 13 0c34 -10 40 -33 40 -63z" />
    <glyph glyph-name="semicolon" unicode=";" horiz-adv-x="377" 
d="M219 295v6c-22 37 -56 47 -95 28c-2 0 -6 -3 -6 -5c-22 -23 -25 -56 -4 -74c8 -10 16 -13 25 -10c22 6 40 17 62 26c8 4 15 18 18 29zM179 -36c-16 -22 -31 -36 -46 -56c-3 -4 -9 -14 -11 -24c-8 -6 0 -22 6 -22c35 -2 67 0 88 35c8 9 19 18 27 28c33 39 38 85 31 135
c0 2 -2 8 -7 11c-8 16 -18 30 -30 43c-11 12 -28 16 -45 7c-24 -11 -36 -27 -29 -55c5 -6 7 -13 9 -20c14 -14 16 -34 14 -51c0 -10 -5 -19 -7 -31z" />
    <glyph glyph-name="slash" unicode="/" horiz-adv-x="802" 
d="M702 713v6c-3 4 -3 6 -3 6c-12 19 -37 22 -50 10c-9 -6 -17 -16 -22 -28c-21 -46 -49 -85 -73 -130c-28 -45 -64 -86 -93 -133c-15 -26 -30 -54 -49 -80l-61 -95c-47 -71 -92 -141 -139 -212c-31 -47 -65 -90 -95 -132c-7 -10 -12 -22 -17 -35c-2 -8 0 -18 7 -24
c5 -9 18 -15 31 -15c21 0 38 6 45 24c29 45 59 92 88 139c30 50 61 96 92 142c25 36 52 71 68 111c3 6 9 9 12 14c21 41 47 78 71 118c37 52 71 111 108 166c27 38 49 81 71 123c6 7 6 16 9 25z" />
    <glyph glyph-name="underscore" unicode="_" horiz-adv-x="809" 
d="M372 -169c27 0 230 13 293 5h25c2 0 8 3 10 5c4 0 9 7 9 9c0 8 0 16 -2 24c-9 25 -17 30 -36 32c-27 3 -54 7 -82 7c-32 0 -225 0 -272 3c-41 2 -78 7 -119 10c-22 0 -47 0 -68 -8c-9 -5 -19 -12 -24 -22c-12 -10 -3 -30 2 -43c0 -3 5 -5 8 -5c8 -4 17 -7 25 -4
c81 4 108 0 190 -8c13 -3 33 -5 41 -5z" />
    <glyph glyph-name="braceleft" unicode="{" horiz-adv-x="361" 
d="M230 295c8 12 13 25 18 40c8 20 10 40 0 60c-18 33 -35 66 -53 98c-5 10 -7 18 -10 28c-2 10 -2 18 -5 28c-12 27 -7 57 -5 85c0 8 3 15 8 23c15 22 22 52 45 72c2 5 2 13 2 18c0 8 -12 18 -20 18c-12 -3 -25 -5 -35 -15s-15 -23 -25 -33c-38 -38 -50 -85 -50 -138
c0 -10 2 -23 2 -35c0 -18 5 -33 13 -48c10 -18 17 -35 25 -53c13 -22 23 -45 33 -68c5 -10 7 -20 2 -32c-7 -20 -17 -38 -30 -56c-5 -5 -5 -15 0 -20c10 -7 18 -15 28 -22c15 -15 15 -25 10 -43c-8 -23 -20 -40 -38 -58c-23 -25 -33 -58 -43 -88c-2 -5 -2 -12 -2 -17
c0 -23 2 -45 2 -68c3 -20 8 -38 20 -55c10 -20 23 -41 38 -58c8 -8 15 -13 23 -20c12 -13 27 -10 40 0c15 15 17 30 5 47c-10 16 -23 31 -33 48c-12 15 -20 33 -20 53c-5 38 0 73 20 105c15 23 28 48 43 71c13 20 20 40 23 65c2 15 -3 30 -15 43c-6 5 -13 12 -16 25z" />
    <glyph glyph-name="braceright" unicode="}" horiz-adv-x="366" 
d="M131 298c-5 13 -12 29 -18 42c-7 23 -10 44 3 64c15 34 34 67 52 101c5 8 10 15 10 26c3 10 3 20 5 31c13 28 8 57 5 88c0 7 -2 15 -7 20c-16 26 -24 54 -44 78c-6 2 -6 10 -6 15c0 10 13 21 21 21c13 -3 26 -5 36 -18c11 -11 18 -21 26 -31c39 -42 52 -88 52 -142
c0 -13 -3 -24 -3 -36c0 -19 -2 -37 -13 -52c-8 -18 -18 -36 -26 -54c-13 -21 -23 -44 -33 -67c-5 -11 -8 -24 -3 -37c8 -20 18 -38 31 -54c5 -8 5 -18 0 -23c-10 -8 -18 -16 -28 -23c-13 -13 -16 -24 -10 -42c7 -23 23 -44 38 -62c23 -25 34 -56 44 -90c3 -5 3 -10 3 -16
c0 -23 0 -49 -3 -72c-2 -20 -8 -39 -18 -57c-13 -18 -26 -38 -41 -56l-21 -21c-15 -13 -31 -13 -44 0c-15 15 -18 31 -5 46c10 18 23 34 34 49c13 16 20 37 20 55c5 38 0 77 -20 111c-16 23 -29 46 -44 69c-13 21 -21 44 -24 68c0 18 3 31 16 43c5 8 13 13 15 26z" />
    <glyph glyph-name="bracketleft" unicode="[" horiz-adv-x="412" 
d="M194 727h47c14 3 29 9 41 23c5 12 2 27 -9 30c-41 11 -82 11 -126 15c-20 3 -47 -18 -47 -48v-169c3 -56 9 -111 3 -166v-10c8 -20 3 -44 6 -63c0 -39 -3 -77 6 -115c6 -15 3 -32 3 -46c-3 -42 3 -83 -9 -121c-3 -14 0 -28 0 -41c0 -49 2 -99 0 -149c0 -17 9 -23 23 -28
l59 -16c26 -5 53 -5 79 0c12 3 23 10 32 16c9 5 12 20 9 28c-3 18 -15 24 -32 27c-94 11 -76 -3 -85 90c-3 15 -3 32 -3 48c-4 55 3 111 3 169c-3 81 -18 163 -12 249v5c-9 47 -6 96 -6 147c3 34 3 66 6 101c0 9 3 19 12 24z" />
    <glyph glyph-name="bracketright" unicode="]" horiz-adv-x="410" 
d="M171 -116h45c9 6 12 14 12 23c3 35 3 67 6 102c0 49 3 99 -6 145v9c6 81 -9 162 -12 247c0 54 6 109 3 164v47c-12 96 6 78 -86 90c-18 3 -29 9 -32 26c-3 12 0 26 9 29c11 6 20 15 32 15c26 6 51 6 77 0c20 -3 38 -9 58 -15c15 -6 23 -11 23 -29c-2 -49 0 -96 0 -145
c0 -15 3 -29 0 -41c-11 -41 -5 -81 -8 -121c0 -14 -3 -32 3 -46c8 -35 5 -73 5 -111c3 -23 -2 -46 6 -67v-5c-6 -59 3 -114 3 -169c3 -55 0 -110 0 -166c0 -29 -26 -51 -46 -49c-44 3 -84 6 -124 14c-12 3 -15 21 -9 30c12 14 26 20 41 23z" />
    <glyph glyph-name="parenleft" unicode="(" horiz-adv-x="533" 
d="M102 123c0 -11 7 -31 7 -48c0 -47 17 -90 36 -135c24 -50 60 -88 109 -118c23 -17 47 -17 74 -3c20 14 23 37 10 53c-14 18 -31 31 -45 45c-52 56 -84 120 -88 202c-2 64 0 128 0 195c0 10 0 23 4 37c11 48 24 94 41 141c19 58 51 108 94 153c21 19 37 40 58 60
c16 17 27 34 29 55c4 5 0 15 -5 19c-18 24 -45 24 -61 4c-17 -20 -31 -41 -49 -61c-19 -24 -43 -44 -62 -68c-17 -17 -38 -37 -45 -64c-4 -6 -9 -16 -17 -27c-37 -47 -43 -107 -64 -164c-2 -41 -19 -81 -19 -122c0 -43 3 -87 -7 -130c-4 -8 0 -12 0 -24z" />
    <glyph glyph-name="parenright" unicode=")" horiz-adv-x="465" 
d="M100 758c5 -14 9 -24 17 -30c12 -20 28 -40 42 -60c33 -44 57 -86 70 -136c10 -37 26 -70 33 -103c7 -37 13 -70 13 -107c-3 -69 -6 -136 -30 -202c-16 -50 -36 -96 -63 -139c-26 -43 -53 -90 -80 -133c-2 -3 -2 -9 -2 -14c0 -12 0 -19 9 -26c8 -7 14 -10 24 -7
c12 4 26 10 36 24c20 23 40 46 56 72c27 50 54 100 84 147c19 40 30 83 39 126c17 74 20 150 13 226c-3 43 -17 85 -26 129c-20 83 -52 160 -116 219c-13 16 -27 33 -44 46c-12 14 -39 14 -52 -4c-10 -9 -18 -19 -23 -28z" />
    <glyph glyph-name="hyphen" unicode="-" horiz-adv-x="718" 
d="M328 247c14 0 82 -1 100 1c21 2 109 4 128 -7c9 -5 20 -2 29 5c23 14 28 31 33 54c2 7 -9 22 -16 24c-11 0 -21 2 -31 2c-56 -2 -233 -2 -289 -4c-26 -3 -92 -3 -117 -3c-22 0 -41 -8 -57 -22c-12 -10 -10 -31 3 -40c10 -8 21 -12 35 -11c13 0 26 6 38 2
c33 -7 106 -1 144 -1z" />
    <glyph glyph-name="guillemotleft" unicode="&#xab;" horiz-adv-x="576" 
d="M229 155c8 -6 29 -21 29 -34c3 -14 -15 -24 -25 -24c-18 0 -39 15 -54 24c-39 19 -76 43 -110 68c-20 16 -39 31 -63 37c-17 7 -28 22 -43 35c-6 6 -4 26 3 34c10 9 23 18 34 28c20 15 41 33 63 43c28 15 51 34 77 54c24 17 47 35 72 54c6 4 12 6 17 10
c11 5 23 -1 29 -13c3 -6 3 -18 -1 -25c-2 -4 -8 -9 -9 -12c-28 -20 -52 -50 -82 -62c-13 -3 -28 -25 -41 -34l-45 -31c-17 -8 -50 -22 -20 -37c22 -9 37 -20 56 -31c20 -13 39 -25 59 -37c19 -13 37 -30 54 -47zM445 155c8 -6 29 -21 29 -34c3 -14 -15 -24 -25 -24
c-18 0 -39 15 -54 24c-39 19 -76 43 -110 68c-20 16 -39 31 -63 37c-17 7 -28 22 -43 35c-6 6 -4 26 3 34c10 9 23 18 34 28c20 15 41 33 63 43c28 15 51 34 77 54c24 17 47 35 72 54c6 4 12 6 17 10c11 5 23 -1 29 -13c3 -6 3 -18 -1 -25c-2 -4 -8 -9 -9 -12
c-28 -20 -52 -50 -82 -62c-13 -3 -28 -25 -41 -34l-45 -31c-17 -8 -50 -22 -20 -37c22 -9 37 -20 56 -31c20 -13 39 -25 59 -37c19 -13 37 -30 54 -47z" />
    <glyph glyph-name="guillemotright" unicode="&#xbb;" horiz-adv-x="757" 
d="M171 428c-8 6 -29 21 -29 34c-3 14 15 24 25 24c18 0 39 -15 54 -24c39 -19 76 -43 110 -68c20 -16 39 -31 63 -37c17 -7 28 -22 43 -35c6 -6 4 -26 -3 -34c-10 -9 -23 -18 -34 -28c-20 -15 -41 -33 -63 -43c-28 -15 -51 -34 -77 -54c-24 -17 -47 -35 -72 -54
c-6 -4 -12 -6 -17 -10c-11 -5 -23 1 -29 13c-3 6 -3 18 1 25c2 4 8 9 9 12c28 20 52 50 82 62c13 3 28 25 41 34l45 31c17 8 50 22 20 37c-22 9 -37 20 -56 31c-20 13 -39 25 -59 37c-19 13 -37 30 -54 47zM387 428c-8 6 -29 21 -29 34c-3 14 15 24 25 24
c18 0 39 -15 54 -24c39 -19 76 -43 110 -68c20 -16 39 -31 63 -37c17 -7 28 -22 43 -35c6 -6 4 -26 -3 -34c-10 -9 -23 -18 -34 -28c-20 -15 -41 -33 -63 -43c-28 -15 -51 -34 -77 -54c-24 -17 -47 -35 -72 -54c-6 -4 -12 -6 -17 -10c-11 -5 -23 1 -29 13c-3 6 -3 18 1 25
c2 4 8 9 9 12c28 20 52 50 82 62c13 3 28 25 41 34l45 31c17 8 50 22 20 37c-22 9 -37 20 -56 31c-20 13 -39 25 -59 37c-19 13 -37 30 -54 47z" />
    <glyph glyph-name="guilsinglleft" unicode="&#x2039;" horiz-adv-x="500" 
d="M369 155c8 -6 29 -21 29 -34c3 -14 -15 -24 -25 -24c-18 0 -39 15 -54 24c-39 19 -76 43 -110 68c-20 16 -39 31 -63 37c-17 7 -28 22 -43 35c-6 6 -4 26 3 34c10 9 23 18 34 28c20 15 41 33 63 43c28 15 51 34 77 54c24 17 47 35 72 54c6 4 12 6 17 10
c11 5 23 -1 29 -13c3 -6 3 -18 -1 -25c-2 -4 -8 -9 -9 -12c-28 -20 -52 -50 -82 -62c-13 -3 -28 -25 -41 -34l-45 -31c-17 -8 -50 -22 -20 -37c22 -9 37 -20 56 -31c20 -13 39 -25 59 -37c19 -13 37 -30 54 -47z" />
    <glyph glyph-name="guilsinglright" unicode="&#x203a;" horiz-adv-x="501" 
d="M131 428c-8 6 -29 21 -29 34c-3 14 15 24 25 24c18 0 39 -15 54 -24c39 -19 76 -43 110 -68c20 -16 39 -31 63 -37c17 -7 28 -22 43 -35c6 -6 4 -26 -3 -34c-10 -9 -23 -18 -34 -28c-20 -15 -41 -33 -63 -43c-28 -15 -51 -34 -77 -54c-24 -17 -47 -35 -72 -54
c-6 -4 -12 -6 -17 -10c-11 -5 -23 1 -29 13c-3 6 -3 18 1 25c2 4 8 9 9 12c28 20 52 50 82 62c13 3 28 25 41 34l45 31c17 8 50 22 20 37c-22 9 -37 20 -56 31c-20 13 -39 25 -59 37c-19 13 -37 30 -54 47z" />
    <glyph glyph-name="quotedblleft" unicode="&#x201c;" horiz-adv-x="524" 
d="M100 550c2 -9 3 -21 4 -30c2 -5 5 -9 6 -15c3 -2 7 -8 10 -9c31 -14 67 2 72 32c1 14 1 25 1 38c0 22 10 39 25 53c14 12 30 21 44 31c7 6 10 20 7 28c-4 10 -14 16 -23 16c-10 1 -21 1 -31 -2c-15 -7 -31 -15 -46 -24c-49 -25 -66 -66 -69 -118zM267 552
c-2 -25 9 -48 20 -70c13 -23 23 -28 51 -27c16 3 28 14 23 34c-1 15 -8 29 -9 45c-6 36 2 70 36 92c10 9 20 14 31 21c9 5 4 23 -4 26c-7 1 -14 5 -20 5c-34 0 -60 -12 -87 -29c-3 -3 -8 -7 -10 -10c-19 -27 -33 -52 -31 -87z" />
    <glyph glyph-name="quotedblright" unicode="&#x201d;" horiz-adv-x="517" 
d="M189 465c7 0 19 7 25 13c15 21 30 39 42 64c25 45 22 39 0 82c-6 12 -12 21 -24 27c-27 15 -52 31 -79 43c-18 6 -34 0 -46 -12c-6 -4 -9 -19 -6 -25c9 -9 15 -18 28 -24c24 -9 42 -28 60 -46c7 -6 10 -21 0 -30c-6 -9 -12 -18 -21 -28l-24 -24c-6 -6 -3 -21 3 -24
c15 -6 27 -9 42 -16zM317 459c25 0 40 6 52 22c21 21 36 48 46 79c3 9 3 21 -3 33c-7 15 -16 34 -22 52c-12 21 -33 40 -58 46c-6 3 -15 3 -21 0c-18 0 -27 -22 -18 -37s21 -30 30 -46c22 -33 25 -63 -9 -94c-9 -6 -12 -18 -18 -30c-3 -6 3 -19 9 -22s8 -3 12 -3z" />
    <glyph glyph-name="quoteleft" unicode="&#x2018;" horiz-adv-x="343" 
d="M100 595c0 -3 0 -12 2 -18c12 -29 26 -60 44 -86c6 -9 23 -15 29 -12c8 6 20 15 20 26c0 12 0 26 -3 40c-3 9 -6 21 -12 29c-5 21 0 38 12 49c9 12 20 21 29 29c8 6 14 12 20 18c3 3 3 14 -3 17c-11 12 -26 17 -40 9c-12 -6 -23 -15 -35 -18c-23 -8 -37 -26 -49 -43
c-12 -12 -14 -23 -14 -40z" />
    <glyph glyph-name="quoteright" unicode="&#x2019;" horiz-adv-x="332" 
d="M136 700c-8 -3 -11 -3 -17 -3c-14 -6 -20 -20 -12 -32c9 -17 24 -32 38 -46c15 -15 15 -29 3 -50c-12 -17 -26 -34 -41 -52c-8 -6 -8 -17 -2 -23c5 -6 14 -12 23 -9c8 0 17 3 23 9c29 20 52 46 73 78c11 18 11 38 0 56c-15 29 -38 49 -64 63c-9 6 -18 6 -24 9z" />
    <glyph glyph-name="space" unicode=" " horiz-adv-x="485" 
 />
    <glyph glyph-name="dollar" unicode="$" horiz-adv-x="642" 
d="M537 210c14 -53 -1 -97 -44 -131c-10 -8 -19 -15 -30 -23c-5 -4 -14 -11 -21 -12c-28 -6 -55 -12 -83 -16v-9c0 -6 0 -14 -3 -22c0 -3 -4 -9 -6 -9c-15 -4 -31 -8 -46 -10c-6 -2 -16 6 -18 12c-1 5 -2 11 -2 16l-1 19h-5c-33 4 -64 17 -94 29c-21 10 -36 29 -47 48
c-16 26 -29 55 -36 85c-2 8 5 21 13 25c13 7 27 9 42 8c7 0 18 -6 19 -13c3 -9 5 -20 7 -29c3 -18 12 -31 24 -42c22 -24 49 -36 78 -46c1 51 4 105 8 154c2 26 3 53 4 79c-35 13 -66 34 -100 51c-27 16 -48 39 -62 68c-6 13 -9 27 -8 42c2 68 35 119 94 155
c25 14 52 18 79 18l2 26c1 18 7 26 30 34c6 1 15 1 23 1c2 0 5 -4 8 -7c1 -2 2 -6 2 -10c2 -7 2 -15 2 -23l-2 -26c16 -2 33 -6 50 -11c34 -12 64 -28 88 -53c19 -17 30 -39 35 -64c1 -5 -2 -14 -6 -16c-15 -17 -42 -16 -54 1c-3 2 -7 5 -8 10c-10 25 -31 38 -52 50
c-17 8 -35 16 -54 22c1 -33 4 -67 8 -97c4 -34 4 -69 0 -104l-1 -16c14 -6 27 -13 40 -20c48 -23 80 -63 111 -104c10 -11 12 -25 16 -40zM208 514v-5c-5 -34 9 -58 36 -73c19 -10 37 -22 56 -32c1 34 0 68 -2 101c-2 31 -4 62 -2 93v1c-3 0 -6 0 -9 -1
c-41 -8 -74 -38 -79 -84zM446 119c13 19 19 41 21 63c-9 15 -18 27 -28 42c-13 23 -33 42 -57 55l-14 8c-1 -10 -2 -20 -2 -30c-5 -56 -9 -116 -9 -174c24 2 49 7 72 19c7 3 12 11 17 17z" />
    <glyph glyph-name="divide" unicode="&#xf7;" horiz-adv-x="913" 
d="M532 524c16 18 5 52 -17 63c-12 3 -25 6 -36 6c-18 -3 -30 -3 -44 -11c-25 -5 -41 -19 -54 -40c-15 -16 -8 -42 5 -54c55 -32 93 -20 146 36zM798 278c33 12 5 44 -33 55c-23 4 -52 11 -75 11c-46 0 -98 -6 -135 -10c-83 -10 -167 -1 -252 -4c-25 -1 -131 4 -148 0
c-66 -10 -81 -52 0 -71c36 -8 73 -14 139 -14c67 9 122 -1 188 4c120 8 213 -10 316 29zM459 104c-27 0 -56 -16 -76 -40c-5 -14 -10 -26 -6 -36c13 -36 30 -46 62 -51c18 5 39 5 56 9c19 7 29 19 39 37c7 20 3 40 -8 45c-23 13 -34 36 -67 36z" />
    <glyph glyph-name="equal" unicode="=" horiz-adv-x="759" 
d="M171 357l39 -3c119 1 232 8 354 9c37 0 57 4 78 52c1 32 -7 38 -19 38c-19 2 -35 3 -54 -1c-98 -8 -197 2 -300 -6c-26 -2 -81 9 -108 -4c-13 -7 -45 -31 -47 -54c-1 -17 -4 -26 57 -31zM537 154c24 4 65 24 77 43c5 21 0 48 -11 53c-3 3 -5 5 -7 5c-75 4 -153 0 -231 -9
c-57 -11 -110 -15 -168 4c-26 7 -46 -5 -71 -30c-13 -13 -13 -43 1 -56c9 -10 19 -16 26 -16c62 0 123 -5 183 4c59 6 113 -11 201 2z" />
    <glyph glyph-name="greater" unicode="&#x3e;" horiz-adv-x="704" 
d="M214 535c-12 8 -38 28 -38 46c-4 17 19 29 33 29c23 0 50 -18 69 -29c51 -26 101 -56 145 -90c26 -21 51 -41 82 -50c23 -8 37 -27 57 -45c7 -6 5 -33 -5 -43c-12 -13 -29 -24 -44 -37c-25 -20 -54 -44 -83 -56c-35 -21 -66 -45 -101 -71c-31 -22 -61 -46 -94 -71
c-7 -6 -16 -7 -21 -12c-15 -7 -31 0 -38 16c-4 7 -4 23 1 32c3 6 10 13 12 17c36 25 67 65 106 80c17 4 37 33 55 45l58 40c22 11 66 29 26 49c-29 11 -48 27 -72 40c-27 16 -51 33 -78 49c-25 17 -49 40 -70 61z" />
    <glyph glyph-name="greaterequal" unicode="&#x2265;" horiz-adv-x="600" 
d="M152 575c-12 8 -38 28 -38 46c-4 17 19 29 33 29c23 0 50 -18 69 -29c51 -26 101 -56 145 -90c26 -21 51 -41 82 -50c23 -8 37 -27 57 -45c7 -6 5 -33 -5 -43c-12 -13 -29 -24 -44 -37c-25 -20 -54 -44 -83 -56c-35 -21 -66 -45 -101 -71c-31 -22 -61 -46 -94 -71
c-7 -6 -16 -7 -21 -12c-15 -7 -31 0 -38 16c-4 7 -4 23 1 32c3 6 10 13 12 17c36 25 67 65 106 80c17 4 37 33 55 45l58 40c22 11 66 29 26 49c-29 11 -48 27 -72 40c-27 16 -51 33 -78 49c-25 17 -49 40 -70 61zM275 -23h60c38 0 91 -2 124 6c11 3 25 -2 38 -2
c14 0 24 5 35 13c12 10 14 23 1 32c-17 13 -35 20 -57 20c-25 -1 -71 -1 -97 -1c-67 1 -204 1 -260 2c-10 0 -20 -3 -31 -4c-7 -2 -18 -17 -15 -24c5 -11 14 -26 31 -34s50 -6 171 -8z" />
    <glyph glyph-name="less" unicode="&#x3c;" horiz-adv-x="704" 
d="M490 535c-21 -21 -45 -44 -70 -61c-27 -16 -51 -33 -78 -49c-24 -13 -43 -29 -72 -40c-40 -20 4 -38 26 -49l58 -40c18 -12 38 -41 55 -45c39 -15 70 -55 106 -80c2 -4 9 -11 12 -17c5 -9 5 -25 1 -32c-7 -16 -23 -23 -38 -16c-5 5 -14 6 -21 12c-33 25 -63 49 -94 71
c-35 26 -66 50 -101 71c-29 12 -58 36 -83 56c-15 13 -32 24 -44 37c-10 10 -12 37 -5 43c20 18 34 37 57 45c31 9 56 29 82 50c44 34 94 64 145 90c19 11 46 29 69 29c14 0 37 -12 33 -29c0 -18 -26 -38 -38 -46z" />
    <glyph glyph-name="lessequal" unicode="&#x2264;" horiz-adv-x="599" 
d="M447 575c-21 -21 -45 -44 -70 -61c-27 -16 -51 -33 -78 -49c-24 -13 -43 -29 -72 -40c-40 -20 4 -38 26 -49l58 -40c18 -12 38 -41 55 -45c39 -15 70 -55 106 -80c2 -4 9 -11 12 -17c5 -9 5 -25 1 -32c-7 -16 -23 -23 -38 -16c-5 5 -14 6 -21 12c-33 25 -63 49 -94 71
c-35 26 -66 50 -101 71c-29 12 -58 36 -83 56c-15 13 -32 24 -44 37c-10 10 -12 37 -5 43c20 18 34 37 57 45c31 9 56 29 82 50c44 34 94 64 145 90c19 11 46 29 69 29c14 0 37 -12 33 -29c0 -18 -26 -38 -38 -46zM264 -23h60c121 2 154 0 171 8s26 23 31 34
c3 7 -8 22 -15 24c-11 1 -21 4 -31 4c-56 -1 -193 -1 -260 -2c-26 0 -72 0 -97 1c-22 0 -40 -7 -57 -20c-13 -9 -11 -22 1 -32c11 -8 21 -13 35 -13c13 0 27 5 38 2c33 -8 86 -6 124 -6z" />
    <glyph glyph-name="minus" unicode="&#x2212;" horiz-adv-x="695" 
d="M356 242c20 1 45 0 69 0c130 -12 151 -2 155 52c0 18 -21 27 -49 26c-78 -2 -156 -3 -235 -5h-106c-27 0 -47 -8 -71 -26c-10 -7 -8 -21 2 -28c14 -12 24 -16 38 -16c15 0 44 -4 65 -5c43 -2 79 3 132 2z" />
    <glyph glyph-name="multiply" unicode="&#xd7;" horiz-adv-x="690" 
d="M531 94c12 -3 25 -1 50 7c7 1 13 23 6 28c-13 11 -23 21 -29 26c-42 28 -82 75 -115 99c-14 11 -33 35 -36 46c9 13 11 25 24 39c14 13 25 30 39 46c22 24 37 45 50 73c9 20 28 42 -11 42c-35 0 -46 -32 -129 -120c-25 -26 -49 -7 -68 11c-15 17 -72 59 -81 77
c-15 20 -28 20 -57 11c-12 -3 -21 -22 -16 -35c8 -16 17 -27 22 -35c22 -41 81 -69 98 -108c-14 -21 -41 -54 -67 -75c-42 -34 -118 -84 -111 -133c14 -19 46 -27 65 -17c5 4 10 8 17 15c29 29 58 57 89 93c19 17 42 30 73 43c46 -29 93 -70 133 -102c26 -21 36 -30 54 -31z
" />
    <glyph glyph-name="notequal" unicode="&#x2260;" horiz-adv-x="728" 
d="M609 453c12 0 20 -6 19 -38c-21 -48 -41 -52 -78 -52c-40 0 -80 -1 -119 -3c-16 -26 -33 -51 -47 -79c-3 -5 -9 -8 -12 -14c-3 -7 -6 -13 -9 -20c74 8 148 12 219 8c2 0 4 -2 7 -5c11 -5 16 -32 11 -53c-12 -19 -53 -39 -77 -43c-88 -13 -142 4 -201 -2l-22 -3l-90 -153
c-7 -18 -24 -24 -45 -24c-13 0 -26 6 -31 15c-7 6 -9 16 -7 24c5 13 10 26 17 36l67 100c-24 0 -48 1 -72 1c-7 0 -17 6 -26 16c-14 13 -14 43 -1 56c25 25 45 37 71 30c30 -10 59 -14 88 -13l21 32l57 89c-51 -2 -101 -4 -153 -4l-39 3c-61 5 -58 14 -57 31
c2 23 34 47 47 54c27 13 82 2 108 4c51 4 101 4 150 3c30 46 84 105 104 149c5 12 13 22 22 28c13 12 38 9 50 -10c0 0 0 -2 3 -6v-6c-3 -9 -3 -18 -9 -25c-16 -30 -52 -83 -85 -130c22 0 44 1 65 3c19 4 35 3 54 1z" />
    <glyph glyph-name="percent" unicode="%" horiz-adv-x="967" 
d="M342 704c-13 0 -26 0 -38 -4c-23 -6 -45 -12 -70 -22c-42 -19 -67 -48 -80 -89c-6 -16 -3 -29 3 -45c26 -60 80 -79 140 -86c3 0 10 0 13 4c38 19 76 35 99 73c9 16 25 29 35 48c25 44 3 98 -45 111c-19 3 -38 6 -57 10zM138 -3c6 0 16 0 22 6c19 19 48 32 67 54
c58 54 115 105 172 159c112 102 220 211 331 312c26 20 48 42 74 61c16 13 28 25 41 41c10 7 13 16 16 26c3 9 -3 25 -13 32c-6 3 -22 6 -28 0c-4 -3 -10 -3 -13 -7c-48 -54 -108 -98 -166 -146c-32 -26 -63 -51 -92 -80c-29 -28 -54 -57 -83 -83
c-92 -86 -178 -175 -280 -248c-7 -6 -16 -13 -19 -22c-13 -23 -29 -39 -51 -51c-13 -7 -16 -19 -16 -32c0 -7 0 -13 9 -16c10 -3 19 -3 29 -6zM380 611v-16c-3 -16 -13 -31 -25 -44c-35 -32 -67 -32 -102 -3c-4 3 -7 3 -7 6c-12 10 -12 25 -3 38c10 10 19 16 29 26
c16 9 32 19 51 6c16 -10 28 3 44 0c7 0 10 -10 13 -13zM638 28c29 -3 51 0 70 -6s35 0 51 3c38 7 64 32 86 61c22 28 29 57 13 89c-3 6 -6 16 -6 22c-16 35 -48 48 -77 64c-19 13 -38 0 -54 -6c-19 -4 -38 -10 -57 -13c-29 -7 -48 -26 -67 -45c-29 -25 -32 -57 -19 -92
c6 -13 16 -26 22 -38c13 -13 25 -23 38 -39zM791 127c0 -6 -3 -16 -10 -29c-3 -3 -12 -9 -19 -9c-35 -10 -67 0 -92 25c-3 4 -6 7 -10 10c-6 16 -3 38 13 45c26 9 51 15 77 22c6 0 12 -3 19 -7c16 -12 25 -31 22 -57z" />
    <glyph glyph-name="plus" unicode="+" horiz-adv-x="821" 
d="M622 273c40 0 74 19 74 55c-7 32 -57 23 -89 18c-32 0 -65 -8 -98 -8c-22 -3 -41 2 -63 2c0 18 -2 51 -2 70c0 17 4 87 4 101c0 17 -10 31 -20 32c-38 3 -65 -17 -68 -54c-6 -38 0 -128 -8 -156c-32 4 -66 -1 -101 -1c-37 -1 -74 1 -108 -5c-8 -1 -13 -1 -20 -5
c-8 -4 -9 -15 -6 -22c9 -21 25 -37 43 -40c15 -4 26 -4 44 1c49 10 72 -1 113 -4c31 0 42 -7 44 -21c6 -46 13 -81 18 -106c0 -25 9 -49 16 -70c9 -17 13 -22 26 -21c12 -4 22 -2 32 12c15 24 28 48 19 72c-5 28 -8 49 -12 69c-3 10 -6 46 -6 60c14 7 32 6 42 8
c35 5 59 8 126 13z" />
    <glyph glyph-name="plusminus" unicode="&#xb1;" horiz-adv-x="781" 
d="M607 377c40 0 74 19 74 55c-7 32 -57 23 -89 18c-32 0 -65 -8 -98 -8c-22 -3 -41 2 -63 2c0 18 -2 51 -2 70c0 17 4 87 4 101c0 17 -10 31 -20 32c-38 3 -65 -17 -68 -54c-6 -38 0 -128 -8 -156c-32 4 -66 -1 -101 -1c-37 -1 -74 1 -108 -5c-8 -1 -13 -1 -20 -5
c-8 -4 -9 -15 -6 -22c9 -21 25 -37 43 -40c15 -4 26 -4 44 1c49 10 72 -1 113 -4c31 0 42 -7 44 -21c6 -46 13 -81 18 -106c0 -25 9 -49 16 -70c9 -17 13 -22 26 -21c12 -4 22 -2 32 12c15 24 28 48 19 72c-5 28 -8 49 -12 69c-3 10 -6 46 -6 60c14 7 32 6 42 8
c35 5 59 8 126 13zM369 19c20 1 45 0 69 0c130 -12 151 -2 155 52c0 18 -21 27 -49 26c-78 -2 -156 -3 -235 -5h-106c-27 0 -47 -8 -71 -26c-10 -7 -8 -21 2 -28c14 -12 24 -16 38 -16c15 0 44 -4 65 -5c43 -2 79 3 132 2z" />
    <glyph glyph-name="at" unicode="@" horiz-adv-x="895" 
d="M525 264c6 -6 12 -9 18 -18c28 -25 62 -34 99 -34c27 0 52 3 70 27c28 16 40 46 50 74c15 34 21 74 33 108v21c-3 46 -9 89 -30 132c-25 59 -68 93 -129 111c-28 9 -56 19 -83 25c-16 3 -31 3 -50 3c-43 0 -83 -9 -123 -28c-70 -31 -123 -83 -178 -138
c-31 -31 -46 -71 -64 -108c-28 -61 -40 -126 -37 -193c3 -44 15 -80 37 -114c21 -40 52 -74 86 -102c30 -9 58 -21 86 -30c9 -3 18 -10 27 -10c68 -3 139 -6 206 10c86 21 86 21 148 76c12 16 12 31 6 47c-6 18 -21 24 -40 15c-9 -6 -18 -15 -28 -22
c-27 -21 -61 -36 -95 -43c-46 -3 -92 -6 -135 -3c-71 10 -132 40 -175 99c-22 30 -34 67 -34 107c0 43 6 83 18 126c13 37 28 68 49 99c31 40 62 70 102 98c43 31 89 43 141 46c31 3 59 -6 89 -18c71 -28 108 -46 136 -148c9 -37 6 -74 0 -114c-3 -15 -10 -30 -19 -46
c-9 -21 -37 -43 -70 -24l-19 9c-12 6 -21 18 -12 37c12 27 3 49 -19 67c-9 13 -18 22 -30 31c-19 19 -43 28 -71 31c-49 0 -92 -19 -126 -52c-28 -31 -40 -65 -31 -105c6 -28 22 -43 43 -52c16 -6 28 -9 40 -15c28 -7 52 -7 77 6c9 6 22 12 37 12zM460 304
c-12 6 -27 12 -43 18c-15 10 -18 31 -9 46c3 4 6 7 9 10c16 15 37 24 59 24c18 3 30 -6 43 -18c6 -6 9 -19 6 -25c-12 -27 -31 -49 -65 -55z" />
    <glyph glyph-name="ampersand" unicode="&#x26;" horiz-adv-x="797" 
d="M170 31c35 -39 146 -43 158 -43c70 0 142 26 188 75c3 0 6 3 6 3c9 6 24 3 30 -3c21 -19 46 -40 67 -58c9 -6 15 -15 24 -21s28 -6 40 0c18 12 18 30 6 48c-15 25 -40 43 -61 64c-15 15 -24 30 -12 52c6 12 12 27 15 42c6 30 17 65 18 94c1 19 -3 36 -15 45
c-16 14 -42 4 -58 -9c-12 -12 -18 -24 -18 -42c3 -27 0 -52 -18 -70c-3 -3 -9 -6 -12 -3c-9 6 -21 12 -27 18c-40 46 -79 91 -125 134c-12 12 -18 24 -24 39c-3 6 -3 15 3 18c9 13 21 25 33 34c34 24 52 57 73 91c28 45 -3 130 -54 157c-16 10 -28 16 -46 16
c-42 3 -76 -12 -109 -28c-30 -15 -40 -38 -54 -69c-14 -30 -26 -63 5 -125c7 -12 10 -27 16 -39c3 -15 12 -27 15 -40c-3 -9 -6 -15 -9 -18c-19 -21 -34 -42 -55 -64c-45 -42 -64 -97 -70 -157c-6 -46 25 -91 70 -141zM376 545c-15 -21 -32 -41 -51 -61c-8 -10 -24 3 -24 6
c-19 40 -19 76 -10 109c6 19 34 31 55 28c6 0 18 -5 23 -9c16 -13 32 -33 7 -73zM288 326c31 -12 55 -33 73 -57c15 -18 30 -37 46 -55c21 -24 45 -45 66 -70c6 -6 9 -18 3 -24c-30 -30 -66 -51 -112 -63c-30 -10 -60 -7 -91 9c-33 18 -57 42 -70 72c-9 19 -18 43 -12 60
c13 32 19 49 33 71c17 24 34 45 64 57z" />
    <glyph glyph-name="degree" unicode="&#xb0;" horiz-adv-x="364" 
d="M261 580c-3 -7 -5 -14 -12 -23c-7 -7 -12 -16 -26 -25c-2 -3 -11 -7 -18 -10c-9 -2 -16 -2 -26 -4h-4c-8 0 -16 2 -21 4s-12 3 -21 12c-21 12 -31 28 -33 46c-2 17 0 33 2 49v2c8 21 18 35 33 47l3 2c7 4 36 16 44 16c7 0 14 -2 28 -9c4 -2 8 -5 13 -7
c19 -11 30 -26 35 -42c5 -12 10 -40 3 -58zM157 596c1 -4 1 -12 12 -17c3 -2 14 -5 14 -5c23 -2 26 22 26 27v2v5c0 14 -3 25 -12 31c-6 4 -16 2 -18 2c-7 -4 -12 -7 -15 -14c-2 -2 -9 -17 -7 -31z" />
    <glyph glyph-name="asciicircum" unicode="^" horiz-adv-x="534" 
d="M151 544c27 55 70 100 108 148c4 5 12 5 15 1c26 -37 55 -71 72 -114c5 -12 12 -23 18 -34c11 -18 24 -33 41 -46c5 -4 11 -2 16 1c7 3 12 10 12 17c2 25 -1 50 -11 71c-14 29 -30 57 -48 83s-36 52 -51 81c-5 9 -12 18 -19 27c-5 6 -13 9 -20 7c-11 -2 -23 -5 -31 -14
c-11 -12 -21 -25 -32 -39c-20 -27 -38 -55 -60 -81c-16 -20 -32 -41 -44 -65c-7 -12 -24 -24 -15 -39c12 -19 30 -2 49 -4z" />
    </font>
</defs>
</svg>
